<mxfile host="65bd71144e" modified="2021-02-22T02:12:28.642Z" agent="5.0 (Windows NT 10.0; Win64; x64) AppleWebKit/537.36 (KHTML, like Gecko) Code/1.53.2 Chrome/87.0.4280.141 Electron/11.2.1 Safari/537.36" etag="EfR4QQOi_U8JLdlty0ut" version="14.2.4" type="embed">
    <diagram id="GPls9aIaNZSS8WLDdvz3" name="Page-1">
        <mxGraphModel dx="990" dy="575" grid="1" gridSize="10" guides="1" tooltips="1" connect="1" arrows="1" fold="1" page="1" pageScale="1" pageWidth="827" pageHeight="1169" math="0" shadow="0">
            <root>
                <mxCell id="0"/>
                <mxCell id="1" parent="0"/>
                <mxCell id="45" value="" style="rounded=2;whiteSpace=wrap;html=1;labelBackgroundColor=none;strokeColor=#CCCCCC;fillColor=#CCE5FF;fontSize=12;fontColor=#666666;spacing=2;" vertex="1" parent="1">
                    <mxGeometry x="230" y="140" width="600" height="360" as="geometry"/>
                </mxCell>
                <mxCell id="3" value="" style="rounded=1;whiteSpace=wrap;html=1;labelPosition=center;verticalLabelPosition=bottom;align=center;verticalAlign=top;strokeColor=#CCCCCC;" parent="1" vertex="1">
                    <mxGeometry x="250" y="150" width="150" height="220" as="geometry"/>
                </mxCell>
                <mxCell id="4" value="Namespace: default" style="text;html=1;strokeColor=none;fillColor=none;align=center;verticalAlign=middle;whiteSpace=wrap;rounded=0;fontColor=#666666;" parent="1" vertex="1">
                    <mxGeometry x="255" y="340" width="140" height="20" as="geometry"/>
                </mxCell>
                <mxCell id="6" value="" style="rounded=1;whiteSpace=wrap;html=1;labelPosition=center;verticalLabelPosition=bottom;align=center;verticalAlign=top;strokeColor=#CCCCCC;" parent="1" vertex="1">
                    <mxGeometry x="420" y="150" width="390" height="340" as="geometry"/>
                </mxCell>
                <mxCell id="8" value="" style="group;fontSize=14;fontColor=#B3B3B3;" vertex="1" connectable="0" parent="1">
                    <mxGeometry x="285" y="176" width="80" height="80" as="geometry"/>
                </mxCell>
                <mxCell id="43" value="" style="group" vertex="1" connectable="0" parent="8">
                    <mxGeometry width="80" height="80" as="geometry"/>
                </mxCell>
                <mxCell id="44" value="" style="group" vertex="1" connectable="0" parent="43">
                    <mxGeometry width="80" height="80" as="geometry"/>
                </mxCell>
                <mxCell id="7" value="&lt;font color=&quot;#b3b3b3&quot;&gt;Ingress&lt;/font&gt;" style="ellipse;whiteSpace=wrap;html=1;aspect=fixed;labelPosition=center;verticalLabelPosition=bottom;align=center;verticalAlign=top;strokeColor=#B3B3B3;fontSize=14;" vertex="1" parent="44">
                    <mxGeometry width="80" height="80" as="geometry"/>
                </mxCell>
                <mxCell id="5" value="" style="shape=image;verticalLabelPosition=bottom;labelBackgroundColor=#ffffff;verticalAlign=top;aspect=fixed;imageAspect=0;image=data:image/png,iVBORw0KGgoAAAANSUhEUgAAAgAAAAIACAYAAAD0eNT6AAA6SUlEQVR42u3dd3yV5f3/8fd1MgxDhixRxIm7iKKQI1pxix1aq1attnX0Z9lBGVZWBEEQZYQEpbW21Vr7VWu1UlAUxUUIiHujKCIoypIZMs71+yNS1IKE5Jzzue9zv56PR/+r5BX0JG/Cue7LCUA0eDlNzT9dTj+TUzdJB0tqLGmNvN6QNFPK+pv6vrjCOhVA6jnrAABpUNL1QnndLLnDdvH/LJdUosq8mzVg7jrrbACpwwAAMllR/FjFEpMl98Pd/CfXyPtRWt2gRIVzq6w/DQDJxwAAMlFxlxZSbISk3pKy6vErvSvnBqh36ePWnxKA5GIAAJlkeuccVWT3knM3SWqaxF95hmLV/dVr4RLrTxFAcjAAgExRlH+GYpoi6cgUfYQKSXcq4YerX9l6608XQP0wAICwK+5yqHzWRDn/o7R8PO8+k0sUalXZXSpUwvrTB1A3DAAgrCZ1b6ac8hskDZCUa1CwSF791Xf+i9a/FQB2HwMACJtCxdQqfrm8nyCptXGNl9ND8rFB6jNvqfVvDYDaYwAAYTI1v7ucJks6xjrlOzbLa4Iq3XhdV7rFOgbArjEAgDAoOWE/+ewxkr/COmUXPpVzQ9Wr9F45eesYADvHAACCbHrnhqrIGSynIZLyrHNqzetZxWIF6j3vVesUADvGAACCyMupOH6hnL9NUnvrnDpKSO4+VSUGqaBspXUMgG9jAABBM7XL8XKxKZJOtE5JDr9OcuOUaD5Z/WZtta4BUIMBAATF1G77yCVGSv4aSTHrnKRzWizvrlOf0hnWKQAYAIC9wqNy1aJxTzk3SlIT65yUc3pKvrpAfRa+ZZ0CRBkDALBUkv8TeTdZ8gdZp6RZpeT+rJyKobp20SrrGCCKGACAhZL8I+T9JMmdbZ1irOba4Tbti3Xxg9XWMUCUMACAdJoY30u5fqTqf01vpnlH3g1Q39InrEOAqGAAAOlQ2D1bLbdcJbkxklpa5wQY1w4DacIAAFKtOH66vJ8sp6OtU0Ki5trhBlnDdPWLG6xjgEzFAABSZUrXDsp2Y+R1kXVKSK2Q/E1cOwykBgMASLaS7o2VKB8opxsk7WGdE37uJTn1V+/SedYlQCZhAADJsv2a3lsltbHOyTA11w5XZQ9U/xc+sY4BMgEDAEiG4vyu8posp3zrlAxXc+1w47xxunJuuXUMEGYMAKA+irq2Uyw2VvKXi9dTOi2Tc8PUu/Qe6xAgrPiCBdTF9M4NVZnTV9IwSY2tcyJsrhKJAvVb8Jp1CBA2DABgd5Xk/0ReRZIOsE6BpG3XDme5geo57wvrGCAsGABAbRXnHyfnJsv7k61TsCNfXzu8asMkFb5VYV0DBB0DANiV6Z1bqjJnuHh8b1i8L7nruXYY+H4MAGBnpnfOUUV2r8hc05tpuHYY+F4MAGBHivLPUExFko6wTkG9VEq6QzmVI3Ttoq+sY4AgYQAA3zSt22FKVE+UdK51CpJqtbwfzbXDwHYMAECSpp3UXImqIZIGSMq1zkGKOL0iHytQn3nPWacA1hgAiLbtj++9TVIr6xykzQz5RD/1XfCRdQhghQGA6Crpeqq8myypo3UKTGyRVKQGWWO4dhhRxABA9Ew5qb2yqm+W/BXWKQgErh1GJDEAEB0TOjZSXsNBchoiKc86B4GzUM4VcO0wooIBgMzn5TQtfoW8Hy9pb+scBBrXDiMyGADIbCUnniBfPUVycesUhMomed3GtcPIZAwAZKap3faRS4zjml7UE9cOI2PxhRGZZWK8gXJ9P0lDJe1pnYOM8YxivkC9yl63DgGShQGAzFFzTe8USQdapyAjce0wMgoDAOFXcmKnr/+e/4fWKYiEtZLGc+0wwo4BgPAq7tJCio0Q1/TChH9PMX+9ei34j3UJUBcMAITP9mt6b5LU1DoHEef0lKp9f/Ure9s6BdgdDACES1H+GYq5yZI/yjoF+AauHUboMAAQDsVdDpVit0v6sXUK8D24dhihwQBAsE3q3kw55TdIKpC0h3UOUCtcO4wQYAAgmLZf0ztBUmvrHKCOuHYYgcUAQPBMi5+ihJ8i6RjrFCAJuHYYgcQAQHAUdW2nWGwsj+9Fhlou525Ur9J75eStYwC+yMLe9M4NVZEzWE6DJTWwzgFSbKEU668+80qtQxBtDADY8XIqjl8o5ydI2t86B0gjL7m/yVUNVu+Fn1vHIJoYALAxrWtnJdwUSd2sUwBDXDsMMwwApNf0zm1VmVso+WskxaxzgID4QN7dqL6lD1qHIDoYAEiP7Y/vHSWpiXUOEEzuacUSA7h2GOnAAEDq1VzTO0nSwdYpQAjUXDucyL5e/Z7/0joGmYsBgNSZGj9czk+SdI51ChBCXDuMlGIAIPkmxvdSrh8pqZekbOscINz8e5KuU5+ymdYlyCwMACRPYfdstdxyleRultTKOgfIKFw7jCRjACA5iuOnS36SpB9YpwAZjGuHkTQMANRPSfwQyY+V10XWKUCEcO0w6o0BgLqZ0LGR8hoOktMN4ppewMrLSiQK1G/B89YhCB8GAHaPl9O0+BXyfrykva1zAEiSZihLfdVz/sfWIQgPBgBqryjeRc5PkVO+dQqA/1Fz7bDLu1m95260jkHwMQCwa3fE91W1buGaXiAUuHYYtcIXc+zcxHgD5fp+koZJamydA2C3LFDC91e/svnWIQgmBgB2rObxvUWSDrBOAVBnXDuMnWIA4NuK84+Tc5Pl/cnWKQCSpubaYd/8FvWbtdU6BsHAAECN4i4tpNgISb0lZVnnAEgJrh3GfzEAom77Nb03SWpqnQMgHdzT8ipQ39I3rEtghwEQZUX5ZyimKZKOtE4BkHZVkrtbiexhXDscTQyAKJrW7TBVJ26X8z+yTgFgbq28v0mrG5SocG6VdQzShwEQJdNOaq5E1RBJAyTlWucACJR35XWd+s6fZR2C9GAAREGhYmoVv1zeT5DU2joHQKDNUCJWoH7zPrQOQWoxADJdSddT5d1kSR2tUwCERs21wwk/XP3K1lvHIDUYAJmq5IT95LPHSP4K6xQAIeXdZ3KJQrVu/yeuHc48DIBMs/2a3iGS8qxzAGSEl+V8f/Uue8E6BMnDAMgUXk7F8Qvl/G2S2lvnAMhIM6RYH/WZt9Q6BPXHAMgEU7scLxebIulE6xQAGW+zpKlcOxx+DIAwm9ptH7nESMlfIylmnQMgUj6Vc0O5dji8GABhVHhUrlo07innRkva0zoHQKSVKeELuHY4fBgAYVOS/5OaY33+IOsUAPhaQnL3qSoxSAVlK61jUDsMgLAoyT9C3k+S3NnWKQCwExvldTvXDocDAyDoJsb3Uq4fKa7pBRAWTouVcEO5djjYGABBNb1zjiqzr5TcGEktrXMAoA7mKCtWoJ7z3rQOwf9iAARRUf4Zcpokp6OtUwCgnmquHc6pGKprF62yjsF2DIAgmdK1g7LdGHldZJ0CAEm2Rt6P4trh4GAABEFJ98ZKlA+U0w2S9rDOAYAUelfODVDv0setQ6KOAWBp+zW9t0pqY50DAGk0Q7Hq/uq1cIl1SFQxAKwU53eVNEVSV+sUADBSIelOrh22wQBIt6Ku7RSLjZX85eL3HwC2Xzu8quwuFSphnRMVfANKl+mdG6oyp6+kYZIaW+cAQAAtkvMFXDucHgyAdCjJ/4m8pkra3zoFAALOy+kh+dggrh1OLQZAKhXnH6eav+c/yToFAEJms7wmqNKN13WlW6xjMhEDIBWmd26pypzh4vG9AFBfXDucIgyAZJreOUcV2b3k3ChJTaxzACBjeD2rWKxAvee9ap2SKRgAyVLz9/yTJB1snQIAGYprh5OIAVBf07odJl89SV49rFMAICK4djgJGAB1Ne2k5kpUFUrqJSnbOgcAIodrh+uFAbC7Crtnq+WWqyR3s6RW1jkAEHlOTykWG8C1w7uHAbA7pnY5TS42SVJH6xQAwLdUSu7PXDtcewyA2iiJHyL5sVzTCwCBV3PtcJv2xbr4wWrrmCBjAHyfCR0bKa/hIDkNkZRnnQMAqLV35N0A9S19wjokqBgAO+LlNC1+hbwfL2lv6xwAQJ1x7fBOMAC+q+TEE+Srp0gubp0CAEgKrh3eAQbANnfE91W1buGaXgDIWCskfxPXDtfgG93EeAPl+n6Shkra0zoHAJBq7iV5X6C+81+0LjH9XbAOMFXz+N4pkg60TgEApFXNtcNV2QPV/4VPrGMsRHMAFMWPVSwxWXI/tE4BAJiquXa4cd44XTm33DomnaI1AIq7tJBiI8Q1vQCAb1sm54ZF6drhaAyA7df03iSpqXUOACCw5iqRKFC/Ba9Zh6Ra5g+AovwzFHOTJX+UdQoAIBRqrh3OcgPVc94X1jGpkrkDoLjLoVLsdkk/tk4BAISRXye5cUo0n5yJ1w5n3gCY1L2ZcspvkFQgaQ/rHABA6L0vuevVp3SGdUgyZc4AKFRMreKXy/sJklpb5wAAMozTU/LVBeqz8C3rlOR8Oplgan53OU2WdIx1CgAgo1VKukOVeSM1YO4665j6CPcAKOraTrHYWB7fCwBIs9BfOxzOb5rTOzdURc5grukFABgL7bXD4RoAXk7F8Qvl/G2S2lvnAADwtRnyiX7qu+Aj65DaCs8AmNa1sxJuiqRu1ikAAOxAzbXDDbKG6eoXN1jH7ErwB8D0zm1VmVso+WskxaxzAADYhVBcOxzcAfDn7nnatHWA5G+U1Ng6BwCA3eNLFVNf9SpbZF2yI8EcANO6/EiJWLGkA6xTAACohyo5jdeX80cE7acBwRsAU/OHyml0INsAAKgLpwf1Zd5lKpxbZZ2yTbD+Tn1q14Fyull88wcAZBKvi9SyvMg645uC8422+MS4lHheUpZ1CpIj5mJq27CFDmjSVgfs2VaNchpIkprkNlKWi2nd1g1a+/X/vtyyVkvWr9D6ik3W2UBa7JGVoxZ5TdUyr5laNmimmHNat3WjvPf6bPMqfbZptXw0rqWPGH+++pQ9al0hBWUAeDlNy18kr2OtU1B3BzfdV9327qgT9/6BurXtqA5N91NuVs5u/RqfbV6l99ct09trPlLZyrc0f+Vben/dJ9afGlAvhzRtp5P36aR4m6N1aLP26tCsndo2bPm9/0x5dYU+Xv+ZXv7yPb3w+Wt6bsWrentNaI6YY+c+VOv9DgvC0wODMQCm5veQ00zrDOy+I5ofoEs6nKHLOpytg5vum5KPsap8nZ5f8ZqeWFammUvn6dONGXs9NzLID1ocrEsOOVMXH3J60l4b7637RPcvnq2/vfeElqxfbv0pos7cBepT+i/zCusASVJx/l8k/do6A7WTm5Wj3xz+I/3uqJ+pU8sOaf/4r6/+QI999IIeWvKMXlu12Pq3A/gvJ6ce+8d1fadLdeq+nVP2cRI+oX9+OFe3vPxXvcprIIz+rj7zf2kdEZABEP9Q8gdZZ+D7NcjeQ7898jwN7HSZ2jUOxo3L7637RA988JTufmeGlm743DoHEdalzZGa2K2/Ttz7B2n7mF5eDyyeo+vnFWnFplXWvwWovU/UZ/7+1hH2A6Coxx6Krd2soJ1IwLdc2uFMTezWX20a7mWdskNViWr9a8mzmvz6P1T6+ZvWOYiQRjkNNCHeR9cefb6c0ZfU9RWbNKxsukre+CdvHAwHrwrXSNeVbrGMsB8A0zs3VWXOOusM7NjeDVto2g8H6fyDfmidUmvPrnhFQ0pLtGDl29YpyHCdWnbQP84arUObBeNusoeXzNXVT4/VVxUbrVOwS4mW6rNgtWWB/Z+6N+Vy7C+gLjiou9685L5QffOXpFP2OValP/+j7j9zlA5sso91DjLUTw44Sc/97M7AfPOXal6zCy78kw5qkpo35CKJqly2dYL9AEAgXdfpUj1w9s3aK6+JdUqdODn9osMZeuOSv6ngmF8o5vhPHclz5RE/1sM9xqnx18+2CJIOzfbT8xfcoR+0ONg6BQHHV0V8S8zFNPmkAt12Yt+M+KbZMDtPE7v117PnTwvUn9QQXpcdepb+0P0GZQX49dG2YUs9fV6xDm9u/j4zBFhw/wtG2sVcTPeeMVL9Ol5snZJ03dp21EsX/Vm/6HCGdQpC7NR9O+svpw0P9Df/bVrkNdXMH0/c5QOHEF3B/68YaVN08gBd2uFM64yUaZzTQPefOUoTu/VXTsz8r98QMgfs2Vb/d/ZoZcfC87alA/Zsq3/1GLfbT+RENDAAIEnqdfTP1evon1tnpEXBMb/QrB9PVNPcxtYpCImYi+m+M29Sy7xm1im7rUubI3Vzl/9nnYEAYgBAJ7Q+QhO79bPOSKvT2h2vZ382Tfs04sej2LX+HS9WfO+jrTPq7PpjL9Np7Y63zkDAMAAiLi8rV385fXgkf0TYscUhmnfBH3lzIL5X24YtNarLb60z6sXJqfjk6yP5OsfOMQAi7sbOv9YRzQ+wzjDTfs82evq8YkYAdmr48Vf+9yrrMDu8+f4acMwl1hkIEAZAhLXfs42u73SZdYa5fRrVHJnq0Gw/6xQEzAF7ttXVR/7EOiNpBna6THvmNLTOQEAwACJsaOffqEH2HtYZgbBPo5aa89Op2q9xG+sUBMi1R52fUSdGWuQ1Vc8fXGCdgYBgAERU24Yt9avDzrXOCJR2jVtr5o9vV/M99rROQQDskZWTUX/636bP0ReG4jkGSD3+K4io3x71U+3BG4L+x1F7HaRHeoxXXlaudQqMnbVf11Ae+9uVdo1b66z2Xa0zEAAMgAhycrr80HOsMwLr5H066e7Thppd7YpgOP/AcF2CtTt+dWgP6wQEAAMggo5rdZgOadrOOiPQLulwpoYdf6V1Bow4Of3ogG7WGSlzdvv8UD3REKnBAIigHvvHrRNCobDL1bokgx+NjJ07pFk7tW7Q3DojZZrt0Vhd2xxlnQFjDIAIOm3fztYJoeDkdNepv9dxrQ6zTkGaReGb48ltO1knwBgDIGKcnI5tdah1Rmg0zM7TYz+aoHaNW1unII2OjMDDsY5pcYh1AowxACLmwCb7cAnObmrbsKX+ec4tPDMhQg7ccx/rhJQ7usVB1gkwxgCImAObtLVOCKUTWh+hP516IycDIuKACLxOGmbnWSfAGAMgYtrvubd1Qmhd0uFMDT+BkwFRwE/JEAUMgIhpkdfUOiHURp7AyYAoaJTDn46R+RgAEcMT7upn28mAzq0Ot05BCuVl8X4PZD4GQMTsEePxv/XVMDtPj5w7Xvs0ammdghRxvNUDEcAAAOpg30at9O9zJ/BGKgChxQAA6ui4VofpL6cP42QAgFBiAAD1cOHBp3EyAEAoMQCAehp5wtW6lJMBAEKGAQDUU83JgBvVpc2R1ikAUGsMACAJGmTvoX/1GMedAQBCgwEAJEnbhi31SI/xnAwAEAoMACCJjmt1mP56+nBOBgAIPAYAkGQ/P/hUDT+ekwEAgo0BAKTAyC6cDAAQbAwAIAWcnP502lBOBgAILAYAkCJ5WbmcDAAQWAwAIIXaNmypR3vcqkY5DaxTAOBbGABAih3b6lD95TTuDAAQLAwAIA1+fvCpGnHCVdYZAPBfDAAgTUaccBUnAwAEBgMASJNtJwO6tjnKOgUAGABAOuVl5erhHrdwMgCAOQYAkGacDAAQBAwAwMCxrQ7lzgAAphgAgJELDurOyQAAZhgAgKERJ1ylyw49yzoDQAQxAABDTk53nXojJwMApB0DADC27c6A/Rq3sU4BECEMACAA9m7YQo/0GM/JAABpwwAAAmLbyYCY42UJIPX4SgMEyAUHddeI4zkZACD1GABAwAw/4UpOBgBIOQYAEDDbTgbktznaOgVABmMAAAG07c4ATgYASBUGABBQnAwAkEoMACDAOBkAIFX4qgIE3AUHdddI7gwAkGQMACAEhh1/pX556NnWGQAyCAMACAEnpz+e+ntOBgBIGgYAEBKcDACQTAwAIET2bthCj557KycDANQbAwAImU4tO3AyAEC98RUECKELDuquwhOuts4AEGIMACCkhh7/G04GAKgzBgAQUpwMAFAfDAAgxDgZAKCuGABAyHEyAEBdMACADNCpZQfdc/oITgYAqDW+WgAZ4mcHnaKbTrjGOgNASDAAgAxy4/G/1uWHnWOdASAEGABABnFy+kP3GzgZAGCXGABAhuFkAIDaYAAAGYiTAQB2hQEAZChOBgD4PnxlADIYJwMA7AwDAMhwnAwAsCMMAGSk8uoK64TA4GQAgB1hACAj9X3+duuEQNl2MqD9npwMAFCDAYCMNPuTBfq/xU9ZZwTK3g1b6JEenAwAUIMBgIx11TNjVLbyLeuMQOnUsoPuPX0kJwMAMACQubZUbdUFs36vZRtXWqcEyvkH/VCjuvzWOgOAMQYAMtpnm1fp/FlDtKlyi3VKoNzYmZMBQNQxAJDxXvnyff16zmglfMI6JVD+0P0GxffmZAAQVQwARMLDS+Zq1Et3W2cESl5Wrh4+ZxwnA4CIYgAgMkYv/LPue/8J64xAadNwLz3a41Y15mQAEDkMAESGl9dvn7lF8z9/0zolUI5p2UH/OGu0sjgZAEQKr3hESnl1hS54nJMB33Xu/idqVJf/Z50BII0YAIiczzev1nkzB3My4Dt+3/lXuvrIn1hnAEgTBgAi6dVVi/WrOaM4GfAdJScP1A/36WSdASANGACIrH8teVYjF95lnREouVk5euicsTqoyb7WKQBSjAGASBv70l/1t/cet84IlJZ5zfTvc29Vk9xG1ikAUogBgEjz8vp/c8eplJMB33LkXgfq72fexMkAIIPx6kbk1ZwMuEGfbOBkwDedu/+JGt2VkwFApmIAAJJWbl6jH/3neq2v2GSdEig3HPcrXXPkT60zAKQAAwD42ltrluiyJ0eqmpMB31J88vU6ZZ9jrTMAJBkDAPiGmUvnaXjZH6wzAiU3K0cPnjOGkwFAhmEAAN8x7uV7dNfb/7bOCBROBgCZhwEA7ECf52/Xsytesc4IlCP3OlD3nzmKkwFAhuCVDOxARXWlLnp8qD78arl1SqD02D+um7tea50BIAkYAMBOrCpfp/NmDdZXFRutUwJlyHFXcDIAyAAMAOB7vL3mI04G7EDJDwdyMgAIOQYAsAuzlpZqaNmd1hmBkhPL5mQAEHIMAKAWbn35b/rj249aZwTKtpMBTXMbW6cAqAMGAFBLfZ67XXOXv2ydESjcGQCEF69aoJYqE1W66AlOBnwXJwOAcGIAALthdflX+unMQZwM+A5OBgDhwwAAdtM7az/WpbNHcDLgOzgZAIQLAwCog8c/ma8bSqdZZwRKTixbD50zVgc35WQAEAYMAKCObn/17/rDW49YZwRKi7ymerQHJwOAMGAAAPXQ9/mJemb5IuuMQOFkABAOvEKBeqhMVOniJ4bpg68+tU4JlB77xzWm6++sMwB8DwYAUE/bTgas28rJgG8afNzl+u2R51lnANgJBgCQBO+uXapLnxyuqkS1dUqgFP/wenXf9zjrDAA7wAAAkuSJT8o0pLTEOiNQcmLZevDsMZwMAAKIAQAk0aTX/qE73/yXdUagcDIACCYGAJBk/V+YpKc/fck6I1CO3OtA3X/WKE4GAAHCqxFIsspElS6ePUyL1y2zTgmUc9rna2x+T+sMAF9jAAApsKZ8vc6bNZiTAd8x6NhfcjIACAgGAJAi765dqktmczLguzgZAAQDAwBIodnLyjRw3lTrjEDhZAAQDAwAIMWKXn9Ad7z5sHVGoLTIa6p/nzuBkwGAIQYAkAYFL0zWHE4GfMsRzQ/gZABgiFcekAaViSr9YvYwvb/uE+uUQDmnfb5u4WQAYIIBAKTJmvL1Om/mYK3dusE6JVAGHvtL/b+jzrfOACKHAQCk0XvrPuFkwA5MPfk6TgYAacYAANLsyWULdN2LU6wzAmXbyYBDmrazTgEigwEAGCh+4yFNe/Of1hmB0iKvqR49lzsDgHRhAABG+j8/STOXzrPOCBROBgDpw6sMMFLtE7rsyZF6e81H1imBck77fI2L97LOADIeAwAwtL5ik346c7BWla+zTgmU6ztdxskAIMUYAICxJeuX68LHb1RFdaV1SqBMPfk6nbpvZ+sMIGMxAIAAeG7Fq+r9/G3WGYGSE8vWA2ffzMkAIEUYAEBA/OntxzT19QetMwKFkwFA6jAAgAC57sUp+s/SF60zAuWI5gfoH2eN5mQAkGS8ooAAqfYJ/fLJQr21Zol1SqCc3b4rJwOAJGMAAAGz7WTAl1vWWacECicDgORiAAAB9NH6FbrwCU4GfBcnA4DkYQAAAfX8ilfV87kJ1hmBwskAIHkYAECA/fmdGZry2v9ZZwTKtpMBzfbgZABQHwwAIOAGzpuqGR9zMuCbjmh+gO4/k5MBQH3w6gECruZkwEi9ycmAbzm7fVeNj/e2zgBCiwEAhMCGys366X8GcTLgO67rdKmu5WQAUCcMACAkPt7wmX7++O+1lZMB31LEyQCgThgAQIi88Nlr6vnsrdYZgZITy9aDZ4/hZACwmxgAQMj85d3/aOKr91tnBMpeeU3073MncDIA2A0MACCEBpeW6LGPX7DOCJTDm++v+88crexYlnUKEAoMACCEEj6hy58s1BurP7ROCRROBgC1xwAAQmpD5WadN3Owvtiy1jolUAYccwknA4BaYAAAIcbJgB3jZACwawwAIORe/Ox1/e7Z8dYZgcLJAGDXGABABvjruzN12yv3WWcECicDgO/HAAAyxA3z79C/P3reOiNQOBkA7BwDAMgQCZ/Q5U8V6vXVH1inBMrZ7bvq1ngf6wwgcBgAQAbZWLlF580crJWb11inBErBMb/Q747+mXUGECgMACDDLN3wOScDdmDKSQN0WrvjrTOAwGAAABlo3udv6Nq546wzAiUnlq0HzrpZHZrtZ50CBAIDAMhQ97w3S+Nfvtc6I1D2ymuiR3vcyskAQAwAIKMNLZuuRz96zjojUA5vvr/+cRYnAwAGAJDBEj6hK566Sa+tWmydEihn7ddVEzgZgIhjAAAZbmPlFp0/awgnA76jPycDEHEMACAClm74XD+ZOUhbqrZapwQKJwMQZQwAICJe+uIdXfn0zfLy1imBwckARBkDAIiQBz6Yo3GLOBnwTdwZgKhiAAARM6xsuh74YI51RqAc1qw9JwMQOQwAIGK8vK5+Zqxe+fJ965RAOWu/rrq5y7XWGUDaMACACNr09cmAzzevtk4JlEHH/VIXHXKadQaQFgwAIKKWbVypn826QeXVFdYpgeHkdPepQ7VnTiPrFCDlGABAhJWtfEu/njOKkwHf0CingfbIyrHOAFKOAQBE3IMfPK0xL/3FOgNAmjEAAGjkgrv0j8VPWmcASCMGAID/ngxY+MU71ikA0oQBAECStKVqq342a4g+3fiFdQqANGAAAPivFZtW6fxZQ7S5qtw6BUCKMQAAfMvLX76n38zhzgAg0zEAAPyPhz58WqMW3m2dASCFGAAAdmjUwrt1PycDgIzFAACwQ15e1zwzVgtWvm2dAiAFGAAAdqrmZMANnAwAMhADAMD3+mzzKp03a7A2VW6xTgGQRAwAALv0ypfv69dzRnMyAMggDAAAtfLwkrm6acGfrDMAJAkDAECtjX7pz/r7+7OtMwAkAQMAQK1tOxkw//M3rVMA1BMDAMBuKa+u0AWP/17LNq60TgFQDwwAALvt882rdf6sIZwMAEKMAQCgTradDEj4hHUKgDpgAACos4eXzFXhQk4GAGHEAABQL2Ne+ovue/8J6wwAu4kBAKBevLx++8wtnAwAQoYBAKDetp0M+GQDJwOAsGAAAEiKmpMBg7WRkwFAKDAAACTNq6sW61dzbuJkABACDAAASfXIkuc0YsEfrTMA7AIDAEDSjV30V9373izrDADfgwEAICV+O3ecnl3xinUGgJ1gAABIiYrqSl30+FAtWb/cOgXADjAAAKTMqvJ1+unMwVpfsck6BcB3MAAApNTbaz7SpU+OUDUnA4BAYQAASLlZS0s1rGy6dQaAb2AAAEiL8S/fqz++/ah1BoCvMQAApE2f527nZAAQEAwAAGlTmajShY/fqA+/4mQAYI0BACCtVpd/pfNmDdZXFRutU4BIYwAASLu313ykS2dzMgCwxAAAYOLxT+br9/PvsM4AIosBAMDMba/cpz+89Yh1BhBJDAAApvo+P1HPLF9knQFEDgMAgKnKRJUufmKYPvjqU+sUIFIYAADMrS7/SufN5GQAkE4MAACB8M7aj3XJ7OGcDADShAEAIDCe+KRMQ0pLrDOASGAAAAiUia/er+mcDABSjgEAIHD6cTIASDkGAIDAqUxU6aInhnIyAEghBgCAQFpTvl4/nTlI67ZyMgBIBQYAgMB6d+1SXTJ7uKoS1dYpQMZhAAAItNnLyjSotNg6A8g4DAAAgTfltf/TnW/+yzoDyCgMAACh0P+FSZrz6UvWGUDGYAAgI1V7/s4401QmqvSL2cO0eN0y6xQgIzAAkJE2VGy2TkAKrClfr/NmDeZkQBLwxkowACKmKgJ/Mk74hDZVlVtnIEU4GZAcXLwEBkDEROEb45qt65XgQpmMNntZmQpemGydEWr8FAUMgIjZWJn5PxpfvI6nx0XBtDf/qaLXH7DOCK11FRusE2CMARAxUfi78cVf8SaxqLj+xSLNXDrPOiOUVm5eY50AYwyAiPl04xfWCSn3xuoPrROQJtU+oUtnj9Dbaz6yTgmd13mdRB4DIGLeWJP5L/q5y1+2TkAabajcrJ89fgN/p72bXv7yPesEGGMARMya8vVasWmVdUbKfFWxUa+uet86A2m2eN0yXTJ7uKp582etVCWq9daaJdYZMMYAiKDXVi22TkiZWUtL+SYQUbOXlWnUwrutM0Kh9PM3VF5dYZ0BYwyACHp6+SLrhJT5++LZ1gkwdPNLf9b9i5+0zgi8Bz6cY52AAGAARNCjHz0nL2+dkXSrytdp9rIF1hkw5OV1zTNjtfCLd6xTAqvaJ/TPD+daZyAAGAAR9MFXn+qFFa9ZZyTdnW/+SxXVldYZMLalaqvOnzlEyzautE4JpDmfLtTnm1dbZyAAGAARVfzmQ9YJSbW5qlzFb2TW54S6+2zzKv10JncG7Mgti+6xTkBAMAAi6p8fzs2os9N/eOtRfbFlrXUGAuS1VYt1zowCnnn/DXM+fUnPrnjFOgMBwQCIqIRPaMCLU6wzkuLLLes0+iXe/Y3/tWDl2zrnsQFaX7HJOsWcl9fIBX+0zkCAMAAi7MllC3Tf+09YZ9TbsLLpWruV55pjx8pWvqUeMxgB0974p+Z9/oZ1BgKEARBxfZ67XZ9sCO+bpWYvK9Of3nnMOgMBV/r5mzrp4Wv10foV1ikm3l7zkQaXllhnIGAYABH3VcVGXf3MmFAeC/xiy1r9Zs7NXP2LWnlzzRLl//MaPb/iVeuUtNpStVWXP1WoLVVbrVMQMAwAaM6nL+m2V/5unbFbKhNV+uWTIznOhN3y5ZZ1OvOx/vrDW49Yp6RFZaJKFz8xTK9m8NM/UXcMAEiSfj//Dj34wdPWGbXi5XXt3PGa8+lL1ikIoYrqSv3u2Vt14eM3alX5OuuclKn2Cf16zmj9Z+mL1ikIKAYAJNWcCvj1nFF6LgQ/Hv39/Dv0l3f/Y52BkHt4yVx1/McVmrW01Dol6bZWV+o3c0brHzwWGd+DAYD/Kq+u0PmzBgd2BCR8Qn2eu123vvw36xRkiM83r9aP/zNQv54zOmNuyVyxaZVOfaR3RpzwQWoxAPAt67Zu1NmP9Q/cF4+NlVt06ZMjNO3Nf1qnIMN4ed373iwd/vdfaNzL92hriB8n/eJnr6vLQ1dp/so3rVMQAlnWATp7vwbK0hDrDGxX7RN6ZMlzSnivk9seo5iz3YnvrP1YZz9WoGeX8wQzpE5FokpzPn1J//jgSe2Z01BH7XWgsmL2XyJrY33FJg0uLVHv526L/PMOQiOh2/T4ctN/Wc7690CTujdTTjnPcA2oY1sdqj+dOlSdWnZI+8euSlSr6PUHNHLhXdpUucX6twIRs1/jNrq+06W65sifqmF2nnXOTj28ZK76Pz9Jyzd9aZ2C3ZFT2UrXLjL9eyf7ATC9c44qcyqsM7BzObFs9T/mFxrY6TK1btA8LR9z7vKXNeDFKXqN40sw1jKvmS4/7Gz9+rBzdYzBEN6RhE/o0Y+e17iX7+Hq47BqkNVEV79o+ghT+wEgScX5qyXtZZ2B79cgew9dfcRPdH2ny7T/nnun5GPMXlamMYv+GrmHtSAcOrXsoF8ddq7OO/BkHdhkn7R//M83r9bf3ntcd787Q++uXWr924G6W6U+81tZRwRjAEzNnyunU6wzUDsxF1O3th3184O664KDuqtd49b1+vXeW/eJ7l88W/e9/4Q+/Gq59acH1Mphzdqrx/5xnb1fvuJ7H60muY1S8nE+/Gq5Zi6dp5mfzNOcT19SVaLa+lNHfTnNUu/559pnBEFx/PeSH2udgd3n5HRos/10fOsj1LnV4erUsoP2adRS+zZqpUY5Db71/034hJZv+lJL1q/Qe2uX6sXP39CzK14O9V0EgFTzOjikWTsd1+owdWrRQUftdZDaNW6tfRu1UqsGzWr1a2yp2qol65frw6+W6521H2vhF+9o4RfvaNlGXh8Zx7nfqXfpdPMM6wBJUskJ+8lnfSAp1zoFydMop4FaN2iudV/f1LepqlwVIT5iBdRFXlau9m7YQk1yGyknlq0muY20sXKzEt4roYTWlK/XmvL12lC52ToV6bFWLq+9es/daB0SjAEgSVPzJ8ppgHUGAAApdL36zJ9oHSEF6UFAlW6o5F+1zgAAIDX8c2q93xTrim2C8xMASSo5YW/5rDmSjrROAQAgid5WTuUp1mf/vyk4PwGQpN4LP1dO5YmSHrNOAQAgSeaowp0cpG/+UtB+AvBNU7teKefGSzI/KwkAwO7z6+Riw/Vl6TQVKmFd813BHQCSVNK9sRLlA+V0g6Q9rHMAAKiFhOTuU1VikArKAnuOM9gDYJspXTso242R10XWKQAA7JTXs4rFCtR73qvWKbsSjgGwTXH8dHk/WU5HW6cAAPANn8q5oepVeq+cvHVMbQTrTYC70qd0jlbnHSv5ayUF6s0UAIBI2iyvm1ThDlXv0nvC8s1fCttPAL5pYnwv5fqRknpJyrbOAQBEipfTQ/KxQeozL5Q3M4V3AGwzNX64Yn6ivHpYpwAAImGRnC9Q77IXrEPqI/wDYJuS/J/Ia5Kkg61TAAAZyLvP5BKFat3+T7r4wdBfy5g5A0CSpnfOUUV2Lzk3SlIT6xwAQEaolHSHEn64+pWtt45JlswaANtM79xSlTnDJfWWlGWdAwAIrRlKxArUb96H1iHJlpkDYJvi/OPk3GR5f7J1CgAgTPx7kq5Tn7KZ1iWpktkDYJua9wcUSTrAOgUAEGhrJY3Xqg2TVPhWhXVMKkVjAEjS9M4NVZnTV9IwSY2tcwAAgVLz+N5E9vXq9/yX1jHpEJ0BsM0d8X1VrVskf3kkP38AwHc9o5gvUK+y161D0im63wCL4l0US0yWXNw6BQBgYpmcG6bepfdYh1iI7gCQap7jNC1+hbwfL2lv6xwAQFpsktdtapw3TlfOLbeOsRLtAbDNhI6NlNdwkJyGSMqzzgEApETN43tVfb16L1xmHWONAfBNJfFDJD+Wa4cBIOMslHMF6l06zzokKBgAO1LS9VR5N1lSR+sUAEC9rJD8TVpVdpcKlbCOCRIGwM4UKqZW8cvl/QRJra1zAAC7pULSnWqQNUxXv7jBOiaIGAC7Mu2k5kpUDZE0QFKudQ4AYJdmKFbdX70WLrEOCTIGQG1N63aYqhO3y/kfWacAAHboHXk3QH1Ln7AOCQMGwO4qyj9DMTdZ8kdZpwAAJElr5P0otWlfnAnX9KYLA6Autl87fJOkptY5ABBRVZK7WzkVQ3XtolXWMWHDAKiP4i4tpNgIce0wAKTbHGXFCtRz3pvWIWHFAEiGovixcn6SnE6xTgGAjOa0WAk3VH1LH7ROCTsGQDLVXDs8RdKB1ikAkGE2yut2+ea3qN+srdYxmYABkGyFR+WqReOecm60pD2tcwAg5Gqu6a1KDFJB2UrrmEzCAEiVqd32kUuMlPw1kmLWOQAQQguU8P3Vr2y+dUgmYgCk2tQux8vFJkvqZp0CACGxXM7dqF6l98rJW8dkKgZAOng5FccvlPO3SWpvnQMAAbVFUpFc3s3qPXejdUymYwCk0/TODVWRM5hrhwHgf8xQlvqq5/yPrUOiggFgoahrO8ViYyV/ufh3ACDaXlYiUaB+C563DokavvlYmhY/RYnEZMl1sk4BgDRbLe9H8/heOwwAa9uvHb5VUhvrHABIsUpJdyincoSuXfSVdUyUMQCCoqR7YyXKB8rpBkl7WOcAQNI5PaVq31/9yt62TgEDIHimdO2gbDdGXhdZpwBAkryvWOI69VrwH+sQbMcACKri+OnyfrKcjrZOAYC68eskN06rNkxS4VsV1jX4NgZAkBV2z1bLLVdJboykltY5AFBLNY/vzXID1XPeF9Yx2DEGQBhMjO+lXD9SUi9J2dY5APA95n59rO816xB8PwZAmEyNH66YnyivHtYpAPAdy+TcMPUuvcc6BLXDAAijmmuHJ0k62DoFQORtltcENc4bpyvnllvHoPYYAGE1vXOOKrJ7yblRkppY5wCIHC+nh1SVPVD9X/jEOga7jwEQdtM7t1RlznBJvSVlWecAiIRF8uqvvvNftA5B3TEAMkVx/nFybrK8P9k6BUCG8u4zuUShVpXdpUIlrHNQPwyATFPz/oAiSQdYpwDIGBWS7lTCD1e/svXWMUgOBkAmmt65oSpz+koaJqmxdQ6AUJuhWHV/9Vq4xDoEycUAyGR3xPdVtW7h2mEAdfCunBug3qWPW4cgNfimEAVF8S6KJSZLLm6dAiDw1sj7UVrdoESFc6usY5A6DICo8HKaFr9C3o+XtLd1DoDAqZLc3UpkD1O/57+0jkHqMQCiZkLHRsprOEhOQyTlWecACAL3tLwK1Lf0DesSpA8DIKpK4odIfizXDgOR9oG8u1F9Sx+0DkH6MQCirqTrqfJusqSO1ikA0maTvG6Tb36L+s3aah0DGwwASIWKqVX8cnk/QVJr6xwAKeMl9ze5qsHqvfBz6xjYYgBgu2knNVeiaoikAZJyrXMAJNVCKdZffeaVWocgGBgA+F/Tuh2m6sTtcv5H1ikA6m25nLtRvUrvlZO3jkFwMACwc0X5ZyjmJkv+KOsUALtti6QiNcgao6tf3GAdg+BhAOD7bb92+CZJTa1zANTKDPlEP/Vd8JF1CIKLAYDaKe7SQoqNENcOA8Hl9Ip8rEB95j1nnYLgYwBg9xTFj5Xzk+R0inUKgP9aLe9Hq037Yl38YLV1DMKBAYC6qbl2eIqkA61TgAirlHSHcipH6NpFX1nHIFwYAKi7wqNy1aJxTzk3WtKe1jlApDg9JV9doD4L37JOQTgxAFB/U7vtI5cYKflrJMWsc4CM5rRY3l2nPqUzrFMQbgwAJM/ULsfLxaZIOtE6Bcg8fp3kxinRfDKP70UyMACQXF5OxfEL5fxtktpb5wAZICG5+1SVGKSCspXWMcgcDACkxvTODVWRM5hrh4F68HpWsViBes971ToFmYcBgNQq6tpOsdhYyV8u/nsDautTOTeUx/cilfiCjPSYFj9FicRkyXWyTgECbLO8JqjSjdd1pVusY5DZGABIn+3XDt8qqY11DhAwM6RYH/WZt9Q6BNHAAED6lXRvrET5QDndIGkP6xzA2Mtyvr96l71gHYJoYQDAzpSuHZTtxsjrIusUwMAqeX8zj++FFQYA7BXHT5f3k+V0tHUKkAY1j+9N+OHqV7beOgbRxQBAMBR2z1bLLVdJboykltY5QEo4PSWpn3rPf8c6BWAAIFgmxvdSrh8pqZekbOscIDn8e5KuU5+ymdYlwDYMAATT1PjhivmJ8uphnQLUw1pJ47VqwyQVvlVhHQN8EwMAwVZz7fAkSQdbpwC7oebxvYns69Xv+S+tY4AdYQAg+KZ3zlFFdi85N0pSE+scYBeeUcwXqFfZ69YhwPdhACA8pnduqcqc4ZJ6S8qyzgG+Y5mcG6bepfdYhwC1wQBA+BTnHyfnJsv7k61TAEmb5HWbGueN05Vzy61jgNpiACC8at4fUCTpAOsURJKX00Oqyh6o/i98Yh0D7C4GAMJteueGqszpK2mYpMbWOYgK95Kc+qt36TzrEqCuGADIDHfE91W1buHaYaTYCsnfpFVld6lQCesYoD74QonMUhTvolhisuTi1inIKBWS7lSDrGG6+sUN1jFAMjAAkHm8nKbFr5D34yXtbZ2D0JuhWHV/9Vq4xDoESCYGADLXhI6NlNdwkJyGSMqzzkHovCPvBqhv6RPWIUAqMACQ+Urih0h+LNcOo5bWyPtRXNOLTMcAQHSUdD1V3k2W1NE6BYFUJbm7lVMxVNcuWmUdA6QaAwDRUqiYWsUvl/cTJLW2zkFgzFFWrEA9571pHQKkCwMA0TTtpOZKVA2RNEBSrnUOjDgtVsINVd/SB61TgHRjACDapnU7TNWJ2+X8j6xTkFY1j+/1zW9Rv1lbrWMACwwAQJKK8s9QzE2W/FHWKUipmmt6qxKDVFC20joGsMQAALbZfu3wTZKaWucg6RYo4furX9l86xAgCBgAwHcVd2khxUaIa4czxXI5d6N6ld4rJ28dAwQFAwDYmaL4sV8/VviH1imoky2SiuTyblbvuRutY4CgYQAAu1Jz7fAUSQdap6DWZihLfdVz/sfWIUBQMQCA2ig8KlctGveUc6Ml7Wmdg51wekXVif7qt+B56xQg6BgAwO6Y2m0fucRIyV8jKWadg/9aLe9H8/heoPYYAEBdTO1yvFxsiqQTrVMirlLSHcqpHKFrF31lHQOECQMAqCsvp+L4hXL+NkntrXMix+kpVfv+6lf2tnUKEEYMAKC+pnduqIqcwVw7nDbvK5a4Tr0W/Mc6BAgzBgCQLEVd2ykWGyv5y8VrKwX8OsmN06oNk1T4VoV1DRB2fJECkm1a/BQlEpMl18k6JUPUPL43yw1Uz3lfWMcAmYIBAKTC9muHb5XUxjonxOYqkShQvwWvWYcAmYYBAKRSSffGSpQPlNMNkvawzgmRZXJumHqX3mMdAmQqBgCQDlO6dlC2GyOvi6xTAm6zvCaocd44XTm33DoGyGQMACCdSuLnyPtJkg63TgkYL6f7FHM3qGfpcusYIAoYAEC6FXbPVsstV0lujKSW1jnmnF6RfD/1LnvBOgWIEgYAYGVifC/l+pGSeknKts4xsEbej+LxvYANBgBgbWr8cMX8RHn1sE5JkyrJ3a2ciqG6dtEq6xggqhgAQFDUXDs8SdLB1ikp9Iy866++pW9YhwBRxwAAgmR65xxVZPeSc6MkNbHOSaJP5dxQjvUBwcEAAIJoeue2qswtlPzVkrKsc+phi6Qiubyb1XvuRusYANsxAIAgK84/Ts5NlvcnW6fUwQxlqa96zv/YOgTA/2IAAGFQ8/6AIkkHWKfUwrvyrkB9S5+wDgGwczHrAAC10Hv+Y8qpPEryoyRtts7ZiS/k1VOr8n7AN38g+PgJABA2d8T3VbVuCdC1wxWS7lRO5Qhdu+gr6xgAtROELx4A6qIo3kWxxGTJxQ0rZihW3V+9Fi6x/u0AsHsYAECYeTlNi18h78dL2juNH3mhnL+Ox/cC4cUAADLBhI6NlNdwkJyGSMpL4Uequaa3V+m9cvLWnzaAumMAAJmkJH6I5Mem4NrhjfK6nWt6gczBAAAyUUnXU+XdZEkd6/kr1Ty3vyoxQgVlK60/LQDJwwAAMlWhYmoVv1zeT5DUerf/eaenlHDX8dx+IDMxAIBMNzG+l3JUIJfoK7lmtfgn5sjrZvWdP9c6HUDqMACAqJgYb6Ac/VgucY7kOqvm1ECupHVyelde86TEA+qz4H3rVACp9/8BzjBHoRti/gIAAAAASUVORK5CYII=;" parent="44" vertex="1">
                    <mxGeometry x="16" y="16" width="48" height="48" as="geometry"/>
                </mxCell>
                <mxCell id="14" value="" style="group" vertex="1" connectable="0" parent="1">
                    <mxGeometry x="480" y="330" width="80" height="80" as="geometry"/>
                </mxCell>
                <mxCell id="12" value="&lt;font color=&quot;#b3b3b3&quot;&gt;api&lt;/font&gt;" style="ellipse;whiteSpace=wrap;html=1;aspect=fixed;labelPosition=center;verticalLabelPosition=bottom;align=center;verticalAlign=top;strokeColor=#B3B3B3;fontSize=14;" vertex="1" parent="14">
                    <mxGeometry width="80" height="80" as="geometry"/>
                </mxCell>
                <mxCell id="10" value="" style="whiteSpace=wrap;html=1;shape=mxgraph.basic.isocube;isoAngle=15;fontSize=14;fontColor=#B3B3B3;labelBackgroundColor=none;strokeColor=#FFFFFF;fillColor=#CCE5FF;" vertex="1" parent="14">
                    <mxGeometry x="16" y="16" width="48" height="48" as="geometry"/>
                </mxCell>
                <mxCell id="15" value="" style="group" vertex="1" connectable="0" parent="1">
                    <mxGeometry x="690" y="192" width="80" height="80" as="geometry"/>
                </mxCell>
                <mxCell id="19" value="" style="group" vertex="1" connectable="0" parent="15">
                    <mxGeometry width="80" height="80" as="geometry"/>
                </mxCell>
                <mxCell id="30" value="" style="group" vertex="1" connectable="0" parent="19">
                    <mxGeometry width="80" height="80" as="geometry"/>
                </mxCell>
                <mxCell id="33" value="" style="group" vertex="1" connectable="0" parent="30">
                    <mxGeometry width="80" height="80" as="geometry"/>
                </mxCell>
                <mxCell id="16" value="&lt;font color=&quot;#b3b3b3&quot;&gt;auth&lt;/font&gt;" style="ellipse;whiteSpace=wrap;html=1;aspect=fixed;labelPosition=center;verticalLabelPosition=bottom;align=center;verticalAlign=top;strokeColor=#B3B3B3;fontSize=14;" vertex="1" parent="33">
                    <mxGeometry y="-12" width="80" height="80" as="geometry"/>
                </mxCell>
                <mxCell id="17" value="" style="whiteSpace=wrap;html=1;shape=mxgraph.basic.isocube;isoAngle=15;fontSize=14;fontColor=#B3B3B3;labelBackgroundColor=none;strokeColor=#FFFFFF;fillColor=#CCE5FF;" vertex="1" parent="33">
                    <mxGeometry x="16" y="4" width="48" height="48" as="geometry"/>
                </mxCell>
                <mxCell id="21" value="" style="group" vertex="1" connectable="0" parent="1">
                    <mxGeometry x="690" y="330" width="80" height="80" as="geometry"/>
                </mxCell>
                <mxCell id="22" value="" style="group" vertex="1" connectable="0" parent="21">
                    <mxGeometry width="80" height="80" as="geometry"/>
                </mxCell>
                <mxCell id="31" value="" style="group" vertex="1" connectable="0" parent="22">
                    <mxGeometry width="80" height="80" as="geometry"/>
                </mxCell>
                <mxCell id="23" value="&lt;font color=&quot;#b3b3b3&quot;&gt;worker&lt;/font&gt;" style="ellipse;whiteSpace=wrap;html=1;aspect=fixed;labelPosition=center;verticalLabelPosition=bottom;align=center;verticalAlign=top;strokeColor=#B3B3B3;fontSize=14;" vertex="1" parent="31">
                    <mxGeometry width="80" height="80" as="geometry"/>
                </mxCell>
                <mxCell id="24" value="" style="whiteSpace=wrap;html=1;shape=mxgraph.basic.isocube;isoAngle=15;fontSize=14;fontColor=#B3B3B3;labelBackgroundColor=none;strokeColor=#FFFFFF;fillColor=#CCE5FF;" vertex="1" parent="31">
                    <mxGeometry x="16" y="16" width="48" height="48" as="geometry"/>
                </mxCell>
                <mxCell id="28" style="rounded=0;orthogonalLoop=1;jettySize=auto;html=1;entryX=0;entryY=0.5;entryDx=0;entryDy=0;fontSize=14;fontColor=#B3B3B3;exitX=1;exitY=0.5;exitDx=0;exitDy=0;strokeWidth=2;strokeColor=#3399FF;" edge="1" parent="1" source="12" target="16">
                    <mxGeometry relative="1" as="geometry"/>
                </mxCell>
                <mxCell id="29" style="edgeStyle=none;rounded=0;orthogonalLoop=1;jettySize=auto;html=1;entryX=0;entryY=0.5;entryDx=0;entryDy=0;fontSize=14;fontColor=#B3B3B3;exitX=1;exitY=0.5;exitDx=0;exitDy=0;strokeWidth=2;strokeColor=#3399FF;" edge="1" parent="1" source="12" target="23">
                    <mxGeometry relative="1" as="geometry"/>
                </mxCell>
                <mxCell id="32" style="edgeStyle=none;rounded=0;orthogonalLoop=1;jettySize=auto;html=1;entryX=0;entryY=0.5;entryDx=0;entryDy=0;strokeWidth=2;fontSize=14;fontColor=#B3B3B3;strokeColor=#3399FF;exitX=1;exitY=0.5;exitDx=0;exitDy=0;" edge="1" parent="1" source="7" target="12">
                    <mxGeometry relative="1" as="geometry"/>
                </mxCell>
                <mxCell id="34" value="" style="group" vertex="1" connectable="0" parent="1">
                    <mxGeometry x="476" y="176" width="80" height="80" as="geometry"/>
                </mxCell>
                <mxCell id="35" value="" style="group" vertex="1" connectable="0" parent="34">
                    <mxGeometry width="80" height="80" as="geometry"/>
                </mxCell>
                <mxCell id="36" value="" style="group" vertex="1" connectable="0" parent="35">
                    <mxGeometry width="80" height="80" as="geometry"/>
                </mxCell>
                <mxCell id="37" value="" style="group" vertex="1" connectable="0" parent="36">
                    <mxGeometry width="80" height="80" as="geometry"/>
                </mxCell>
                <mxCell id="38" value="&lt;font color=&quot;#b3b3b3&quot;&gt;frontend&lt;/font&gt;" style="ellipse;whiteSpace=wrap;html=1;aspect=fixed;labelPosition=center;verticalLabelPosition=bottom;align=center;verticalAlign=top;strokeColor=#B3B3B3;fontSize=14;" vertex="1" parent="37">
                    <mxGeometry width="80" height="80" as="geometry"/>
                </mxCell>
                <mxCell id="39" value="" style="whiteSpace=wrap;html=1;shape=mxgraph.basic.isocube;isoAngle=15;fontSize=14;fontColor=#B3B3B3;labelBackgroundColor=none;strokeColor=#FFFFFF;fillColor=#CCE5FF;" vertex="1" parent="37">
                    <mxGeometry x="16" y="16" width="48" height="48" as="geometry"/>
                </mxCell>
                <mxCell id="40" style="edgeStyle=none;rounded=0;orthogonalLoop=1;jettySize=auto;html=1;entryX=0;entryY=0.5;entryDx=0;entryDy=0;strokeColor=#3399FF;strokeWidth=2;fontSize=14;fontColor=#B3B3B3;exitX=1;exitY=0.5;exitDx=0;exitDy=0;" edge="1" parent="1" source="7" target="38">
                    <mxGeometry relative="1" as="geometry"/>
                </mxCell>
                <mxCell id="41" value="Namespace: onecloud" style="text;html=1;strokeColor=none;fillColor=none;align=center;verticalAlign=middle;whiteSpace=wrap;rounded=0;fontSize=12;fontColor=#666666;" vertex="1" parent="1">
                    <mxGeometry x="540" y="460" width="160" height="20" as="geometry"/>
                </mxCell>
                <mxCell id="42" value="Cluster" style="shape=image;verticalLabelPosition=bottom;labelBackgroundColor=none;verticalAlign=top;aspect=fixed;imageAspect=0;image=data:image/png,iVBORw0KGgoAAAANSUhEUgAAAgAAAAIACAYAAAD0eNT6AACAAElEQVR42u3dd3hU1dY/8O8+Z3pJTyCNIiBNaigCIvZ+vYqiYq9YIIq9XkV9vXptgAFU7L333rEiQhKKoEgvCYH0ZPrMOfv9Y0ARA2kzZ58zsz7P8z6/30XIrDOZOXudvddeGyCEEEIIIYQQQgghhBBCCCGEEEIIIYQQQgghhBBCCCGEEEKITjHRARBCtDHm6i0ZYcWcByXcTZGkrhLnzbv+G+OsISKrG9MyCjYsmMEiomMlhMQfJQCEJKBDZnBTc13FeKg4iIONAjAKQE7r/5KFGfgGDvzOgO8B9bPSOYUrRF8PIST2KAEgJEFMmsTldTkVxwLsFDD8C0BmjH50JYDPJKjPL5lTuED0dRJCYoMSAEIMbnRxbUqEBy/gnE8HQ4+4vhjHag48w82hx5fO6tkg+toJIR1HCQAhBlU0fWMuj5ivAcelYHBr++qskYM/apFNsxbN7rJd9HtBCGk/SgAIMZih07f1YGH1asZwCQC74HCCYPx1KPyusnmFa0W/N4SQtqMEgBCDGDJ120BZUm4EZ5MBmETH83csDKa+CkW6t2xe3m+ioyGEtI4SAEJ0bugVW4dKMq4BZ2cCkEXH0woVwMcSU+9eUlL4i+hgCCF7RwkAITpVdEXlQVziNwI4Hgb8rnLgR8bwv7KS/A9Ex0II+SfD3VQISXTDiiuOYBx3ARgjOpZY+CsRyPsQYFx0PISQKEoACNGDGVwaXlt5PDhuBzBCdDhxwbCcgz/Uuyr/pTfeYIrocAhJdpQAECLQwBkrLZba1DOYym4BQ1/R8WiDr2eQHnF7go8veLZnQHQ0hCQrSgAIEaB38RprCneeB/DbABSKjkeQKs4xSwqzktL5eT7RwRCSbCgBIERD426odgd84Qs5cCPAc0XHowsMNeCYG1Yis1c82r1edDiEJAtKAAjRwLDibdmMq1MBXAUgTXQ8usTRzIFnJHP4vtJZPbaJDoeQREcJACFxVHRVZTc1wq9lDBcDcIiOxyCCAH+OydI9pbPzNosOhpBERQkAIXEw8vLt+0WkyFWM4VIAVtHxGFO0uyDj0n9L5+T9LjoaQhINJQCExNDwy7cMholdZ5CufUahAvhYVaW7ls7LXSw6GEISBSUAhMSA0bv2GQUHfgTnd5TPLfhKdCyEGB3dqAjphN0G/hNEx5JMqLsgIZ1HCQAh7bWzax/n7DYGPkp0OEluGWf8YeouSEj7UQJASBsVTVliVq1dJzPObgLQX3Q8ZHdsHQNKGpn3sbUlfYKioyHECCgBIKQVvYvXWN2wn844+w+A3qLjIfu0mYE9jBCeoO6ChOwbJQCE7MXAK3a4bFLkIg5+A4A80fGQdqkGME81hWYtndWzQXQwhOgRJQCE7KFoSmUWt/BpHChmQIboeEgnUHdBQvaKEgBCdhp91fYuYSVyOYCrAaSIjofEVBDgz8kq+7/F8/K3iA6GED2gBIAkvcHTqnrKXJnOGKYAsImOh8RVCIy/JknsniWz81eLDoYQkSgBIElrxJVVB6g8cgM4mwzAJDoeoikVwMcc7M7yOXlLRAdDiAiUAJCkM6K4YpjK2c0APxX0HSDAl6qEO5Y+kv+T6EAI0RLd/EjSoK59ZF+ouyBJNpQAkATH2fDiyhPAcQuAA0VHQwyBuguSpEAJAElMO9v1gmMGgOGiwyFGxNYBuJ+FKp8pnT8iLDoaQmKNEgCSUAbOWGmx1KaeIXF2Kwf2Fx0PSQibGNhMi1mZv3BmoV90MITECiUAJCEMvq7KaQ6oFwP8Og4UiI6HJKQdAB6l7oIkUVACQAxtdHFtSkgNXM4YrgeQKToekhSaOMezJm6+d/G8nCrRwRDSUZQAEEMafFlVjsmkXAGw6QBPFR0PSUpezvGUIvEHlpcUbBUdDCHtRQkAMZRhUyu7A/waxnAJALvoeAgBdRckBkUJADGE4Vds6Q2JXQ+wC0Fd+4g+qQA+hsRmlD2SVyo6GEJaQwkA0bVhxVuHMOBacHYmAFl0PIS0AQfwEef8v+VzCxaKDoaQvaEEgOjSbl37jgd9TolB/dVdMP8D0bEQsie6sRJdGVZccQRTcScYxoqOhZBYYcBSlfGZ1F2Q6AklAES8v7r23Q5ghOhwCIkXBqxUGb8/NTP/5QUzWER0PCS5UQJAhCmassSsWrtOZpzdDKCf6HgI0QzHRsbYLOouSESiBIBornfxGmsKd54H8NsAFIqOhxCBdgB4lIUCM0vn92oUHQxJLpQAEM2Mu6HaHfCFL+TAjQDPFR0PITrSxBgetZjU+xfOLKwTHQxJDpQAkLgbVrwtm3F1KoArAaSLjocQHfNwjqdVRb1/2WOFFaKDIYmNEgASN0VXVXZTI/xaxnAxAIfoeAgxkBAYf01R8X/L5hb8IToYkpgoASAxN/Ly7ftFpMhVjGEKAJvoeAgxMBXAx4yzO0rn5pWJDoYkFkoASMwMv3zLYJjYddS1j5CY4wA+AuP3lJUU/Cw6GJIYKAEgnTZiWsU4FbgJ1LWPkLij7oIkVuhmTTpst3a9J4iOhZAkVM7A7y2dk/8mwLjoYIjxUAJA2mdn1z7O2W0MfJTocAgh/FfO8AB1FyTtRQkAaZPduvbdBKC/6HgIIX/HgA0Am+32BB9f8GzPgOh4iP5RAkD2aeCMlRZLbeoZjLPbAPQRHQ8hZN84sJ0Bj1F3QdIaSgBIiwZescNlkyIXcfAbAOSJjocQ0m61AOZYzeoj1F2QtIQSAPI3o6ZuzYwwVsyBYgZkiI6HENJp1F2QtIgSAAIAGH3V9i5hJXI5wKYDPFV0PISQmAuB8ddUxu9e+kjhGtHBEPEoAUhyg6dV9ZS5Mp269hGSNFSAvcUZm1FekrtKdDBEHEoAktSIK6sOUHnkBnA2GYBJdDyEEM3tbDOs/l/p3MJFooMh2qMEIMmMKK4YpoJfDc7OAiCJjocQIh51F0xOlAAkCeraRwhpzV+JQN6H1F0w8VECkNA4G15ceQI4bgFwoOhoCCFGwVZwpj5I3QUTGyUAiWhnu15wzAAwXHQ4hBBjou6CiY0SgASyq2ufxNmtHNhfdDyEkMTAge3gmCmFWUnp/Dyf6HhIbFACkAAGX1flNAfUiwF+HQcKRMdDCElQDDXgmBtWIrNXPNq9XnQ4pHMoATCw0cW1KREevICD3wSgq+h4iP7JEjB2gA3De1swsJsZoQhQvi6ElZtCWPxHEIoqOkJiCBzNHHgGTPlf+ZxulaLDIR1DCYABDb6sKsdkUq4AcBWANNHxEP2zmBmmHOvGxLEOSBKD2/7XV59zwONXoXLgw198eOyjZviCVABO2iQIxl+Hwu8qm1e4VnQwpH0oATCQYVMruwP8GsZwCQC76HiIMQzrZcF/z09HikOCzbLvr3xY4fD6Oe58uQHfraCaL9JWLAymvgpFurdsXt5voqMhbUMJgAEUFW/uxbl0AyBdAHCz6HiIcUwYbMOdZ6fBbW9fzyePX8WcD5rxxvde0ZdAjEUF8LHE1LuXlBT+IjoYsm+UAOjYsOKtQxhwLTg7E4AsOh5iLEN7WTD70gy42jn47+IJcDzwRiM+/IWKvkn7UXdB/aMEQId269p3POh3RDogxSHhzdtykOnuXLfnZp+Kcx+sweZq6gVDOoa6C+oXDS46UnRF5UFc5jPAcbjoWIix3TApFaeMc8Akd+4rzjmwdH0IF8+qEX1JxOgYlnPwh3pX5b/0xhtMER0OoQRAvF1d+8D/A85Gig6HGJ/bLuGDO3Pave6/N00+FRfPqsG6bTQLQGKBr2eQHmlk3sfWlvQJio4mmVECIEjRlCVm1dp1MuPsZgD9RMdDEsfxo+y4+fQ02C2x+XpzDrz+nRf3v9ko+tJIYtnMwB5GCE9Qd0ExKAHQWO/iNdYU7jwP4LcBKBQdD0k891+UjsOHxnaX6KYdEUy8e4foSyOJqRrAPOouqD1KADQy7oZqd8AXvpADNwI8V3Q8JHG9d0cOCrJMMf2ZnoCKQ26oAqcSLhIvO7sLSubwfaWzemwTHU4yiO1dgvxD0ZTKLG7h0/y+0JUA0kXHQxKf3RKbtf/dqSpgMTEEw5QBkDhhcDPgSh4xXzp82tbnZJX93+J5+VtEh5XIKAGIk5FX7OiqyuHpnPNiAA7R8ZDkYY7Dt5pzwGmjBIBowgqwKYrELhhevPVVxqX/ls7J+110UImIEoAYG3n59v0iUuQqhYWngMMmOh6SfOK1ricxWjEkWuJmcHYOBz9r+LSKj1VVumvpvNzFoqNKJJQAxEjRtC2DOGPXKzwymdH7SgghsSIBOEGS1BOGTav4EZzfUT634CvRQSUCGqg6acS0inEqcBMHjgenokoiXrxO9OWg6X8iFgPGgbEvh02roO6CMUAJQAftaterAieIjoWQ3TV6VKQ6YlsIKEtAk5fus0QfGDAOHO8Pn1a5jLOtD1N3wY6hJ9b22NW1j7NbAT5adDiEtOTRaZkY1dca05/Z5FNx6I1Voi+NkL1g6wDcz0KVz5TOHxEWHY1RxH6/UCKawaWiaVsnDa+pXAGO92nwJ3q2uTr2D0INnngtLBASC7wXwB/nltw1RdMqryqaUkk7r9qAlgD2YeCMlRZLbeoZrKbyNg7WR3Q8hLTFpu1hKCqHLMVugm9bPc2uEkPozsFnwYJbh0+rmKeaQrOWzurZIDoovaIEoAUDr9jhskmRi3gNvx5Avuh4CGmPyjoFgRDgjOEm1C076CAgYijZAO6QwpZrhk2teMbEzfcunpdDa1h7oARgN6Ombs2MMFbMES7mQIboeAjpiA1VEYQVjliV+IQjHL9vpWVVYkA7uwsqLHzRsKkVTykSf2B5ScFW0WHpBSUAAAZfVpVjMilXRMCmAzyVKiOJkW2picAsx+5T7AtyrK2kGQBiaE7GcKWJs8uGF299TZLYPUtm568WHZRoSZ0ADJ2+rQcLq1czplwCwA7a50wSgKoCDV4VTpsck58nScD6KpoBIAnBAs7OURWcNXxaxccc7M7yOXlLRAclSlImAIOLtxaYVHYnIuq5YMn5HpDEtrYyjPzM2CQAEQXwBig5JglFAnACAz++aFrFq2HIty6f03WD6KBEvAlJo2jKutRh07b+18TZH2C4EEmaAJHEt3RdCGqMxuytNTT9TxIW48BkE5TfioorHxo6fUOa6IC0lDQJwLDiiiO4xbaSgd0MwC46HkLiaXN1BL5gbDKA1VspASAJz8o5v0aKWJYXXbn1UNHBaCXhE4BDzt9gKyquuI9xfAba0keSRGWtgojS+QQgonCsqaT1f5I0CrnKvho2tWJ27+I1sW2nqUMJnQAMm7Y5r9llWcg5bkz0ayVkdxW1EcSiD5A/yLGlmmYASFJhjOHKFO74fNDlm9JFBxNPCTsoDiveNoBB/okDQ0XHQojWvAEOiXU+A1A41QCQpHWwWTb9UHRVZTfRgcRLQiYAI6ZVjGNc/QFAd9GxECKKx9/5/v0miWF7PZ0DQJLWAK7wn4ZM3bq/6EDiIeESgCFTtw1UgQ8AJPTUDSGtafB2fuBWOY9JLQEhBpYvM/blyCsqCkUHEmsJlQAMLt5aIDP1E9DgTwjqmjufAND+f0IAAIWKxD9OtG2CCZMAjLuh2m3i7DMACZelEdIRNU2dP8Gvno4BJmQndoAUsbyKGTxhxs2EuRCfL1wCYIDoOAjRi+0NnU8AamOQRBCSQI4uqq24WnQQsZIQCcCw4q2nMvDzRMdBiJ7UNqlQOtkOsKaJZgAI2R3n0r0jireMEh1HLBg+ARhcvLWAcfaE6DgI0ZtQmEPt5Pjd7KMEgJC/42aVS88WTVliFh1JZxk+ATAB/wWQJjoOQvQmFOFQOjl+UxEgIS3qr1pyLxMdRGcZOgEYesXWoeDsLNFxEKJHoUjnZgA4BzwBmgEgpCUMuHPM1VsyRMfRGYZOACSJPWT0ayAkXoLh6D7+joooHIEwzQAQshfpwZB0k+ggOsOwg2fR1C2jARwmOg5C9ErlHJ0ZvhUVCEcoASBkHy4bXVybIjqIjjJsAsAlNlV0DITomUli6MxxAIwBDDE4UYiQRMXgjqh+wy5DGzIBKJpSmQXOJomOgxA9M8mdG8AZAyRD3iEI0Q5nbBrADZkpG/LrrZrVcwHYRMdBiJ7JcidnAEAJACFtMGDoFVUjRAfREYb8ejNIJ4iOgRC9M0mA1MklANmQzzWEaEuS1ONFx9ChuEUH0F6ji2tTwPg40XEQoncj+1phNXd8BJclhoIsk+jLIMQIKAHQQhjBIwBYRMdBiJ45rAyHDrZ1ugjwyOF20ZdCiBEUjbxiR1fRQbSX4RIADhwhOgZC9O6io92devrfxWVnOHgQldsQ0gqmSOEJooNoL8MlAAw0/U/IvvQvNOOUgxwxSQDcdgm3TU5DhttwtwpCNMUAw41NhvpWjy6uTQHHQNFxEKJX+VkyHrk8E2577L7aaU6Gp6/OQpc0WfTlEaJbnBKA+IogeCAAugsRshcll2ci3RXbr7UsMeRnmfD0NVmiL48QPRsy7oZqt+gg2sNQCYBK0/+E7FOGS+pU4d/eSAxwxXBWgZAEJPu8wVGig2gPQ32jGcdY0TEQomfxGPx3keL88wkxOokZa4wyTAIwaRKXARgquyJES9GmP/EboVUO2GJQWEhIouJghpqlNkwCsKFr5WAAhj11iZB4MMkMXdJkDOphwRHD7J06/rc1KufITKESHEL2YczOh1VDMEybL1XFWDqYjCQjl13Cfl1N6JZtwn65JvTOM6MgS0aGS4IkMYQVDoZoMmCLY4sss8zw4g1ZkBiDL6iiplHFtroINu6IYOP2CDZURf9fX5COECZJK2Vd1taBAJaLDqQtDJMAcIaxNP6TRMYY0C3bhAHdzBjU04IDuluQnyVDZjun3y1sL3v7tflm2K3sz9dy2mRkp8ro380MAAiEOAJhDpPEoKgclXUK1lSEsWJjCCs3hbFuWwQRhRIDkviYxMaBEoDYMmKTBUL2xWljGNbLiqI+FhT1tqJbjoyIEh3o7RZjpbs2C4Ptz5gZUp0S+heacexIO/xBDpPMUNesYMXGMH7+PYiVm0LYUBURHTYhMbezDuBR0XG0hSHuMsOmbc5jkCtEx0FIZ6Q4JAzvbcH4gTaM6muF2xH9+rls8dm6p1eBEEcwzMEYsHJTGAtW+LF4dQibdlBCQBIAx8ayufk9RYfRFoa47RRN2zqJg70uOg5C2oMxoG+BGRMG2XDkMDuyUiVIDHDaDFN7q4lQhMMf5AADlq8P4ePFfvz0WxAevyo6NEI6RImoBcseK9T9Q6shlgA4w1jQ8iExAJPMMKKPBSce6MCY/lZwHj1QR5YMkWsLYTExWEzR92f8ATYU9bFCVTkqahV8ssSPb5YFsLWGZgeIcUhmNgbAm6LjaI0hEgDQ+j/RMZPMMKa/FSeNcaCojwWcR6f7Scc4dhYb9i2I7n648CgX/CGOj37x4/2ffdhSTckA0bedNWu6TwB0/1gy5uot9mBYagAQxw1OhLTfgG5mTBrvxCGDbWCMwW3X/dfJ0BSFwxvkaPCoePsnHz5Z7EdNkyI6LEL+ifHFZSUFum9cp/s71rDibRMYVxeIjoMQAMhwS5g4zolTxkWP201xJFcBn16EwhzBCMfWGgXPfenBgmUBhGmbIdGPSFA1p6+cl+MRHci+6H4JgNEBQEQHinpbcO4RLgzuaYHVvLf9+EQrFjODxczQv1DCfyan4pbTU/HxYj9eXuBBRQ3NChDhTHYpOALAAtGB7DNI0QG0ig4AIoLYLAwnj3HgnCNcsFsYrevr1K5dFZPGO3D8KDu2VCt46rNmfLciAJUmBYggarQfwALRceyLzhMAzjgqx9CzFtFShlvC2Ye5cNIYB8wmtrMojeidLEXrMAZ0k3D3uenwBzme/KwZ7y70IRSmTIBoTvez17q+sw0r3jaAcXWl6DhIcijIMuGKE9wYN8AKq4XBLOv660HaIBDiCEU43vrBhxe+9qDRS70FiGYayrLyMjGD6fZDp+sZAEnlYzndg1u1a2q6yafbz5muFWabcOW/UzByfwucNgm0ZT9x7GpRfPZhTpw63oEvygJ49KMm1DXTd6U99s83Y1RfKw7oYUaKQ0IozLFxewSL14RQtiYIf4hmWFqQNqS6qv8yQLcPsbpOADjjtP7fgpH7W/HvMQ6M6WeFycSgKNG2qhIDappUfFnux8eL/dRatRWF2SZc9e8UjNjfknTteJON2cRgNjGceKAdRw634eNf/Hj8k2aaEdgHxoATRtlx+fEpsFnYPxpajT8AOGls9P37emkAcz6gxGpPMuPjoOMEQNe3vKJpFas5sL/oOPRiv64mzDg7Hd1yZLjtey9IU1QOX5Bj9dYw7nu9kQ5d2UO6S8L0k1IwYbCNBv4kFVY4AiGO9xb68NRnHpo920OXdBmzLs1AfqYJTlvrX5CIyuELcNz/RhM+WeITHb5uMLDnS+fknSc6jr3Hp1NFUyqzuIXv0HOMWjq6yI6bT09t14DFOeAJqHjuSw+e/cIDnuSzdDYLw/lHunDGBCfsFgYTrfEnvXCEwx/ieP5LD1782ku9BBA9v2LOFZlId7U/Ofb4OV76xoP5nzSLvgydYOvK5uT1Fh3FXqMTHcDeDJtWcSID3hMdhx4cP9KBGyalwGXv2DY0X5Bj5aYQrn2iDt5A8t3gGAOOG2nH1Senwv63Y2sJifIHOTwBFf97vRHfLA+IDkeYE0Y5cN2pKfucYWyNJ6Dikfea8dYPXtGXowvMFM4rndVjm+g4WqLbjc0So/3/ANAlTcb1nRj8gWhv9SH7WfD6LTkozNZ12UfM7Z9vxis3ZeOGSWlId0k0+JMW2a0M2akyZpydjhdvyMb++WbRIWmKMeDGSam4flJqpwZ/IHq8dfGJ7qS71+wNVyxjRMewN7pNALgB9lBq4abTUmOyD91iYuiSJuPpq7PQLQm+mCkOCTPOTsMTV2WiT54ZrjasYxLisjP0LzTjiasycefZaW1a/zY6xoDbJqfhhNGOmH1PXDYJ15+aIvrSdIHpeCzTZQJQNGWJGRxFouMQLd0lYVhvS8yOkmUs+jOfujorobPzI4bZ8M7tOThmhL1TMyckebnsEo4usuO9O7rg8GE20eHEDWPArWek4ajh9pg2vGIMGNzTgi5psuhLFI5z/e5m0+XdkVu7FgGwi45DtMOH2mLejGb3JKAgK7GSgKwUGY9Oy8R/JqchzSlRIx/SKWYTQ7pLwu2T0zH/qix0SU+swSxeg/8uNjPDUcOT/jYOgBUVTal0iI6iJbpMAPQ8ZaKlCYPtcVmzZgzIcEl4+prEualNHOvEG7dmo6iPhZ76SUy57AzDelnw2s3ZOOswV8JsG7365BQcNdwet2UOs4lhTH+r6MvUAW7mVn3OaOvyTsnpACAAQH5m/AbnXUnAE1dldbroR6R0l4THijMx/WQ3UhxSzJZLCNmdxAC3XcKlx7rx7LXZhp/aPmOCEyeNccS9xqFbTmLNMnYU4/p8qNXpnV/SbdWkluJ9+hxjQJe06ABqMRlv4Bw/0IY3b83BsN6WP0+EIySenDaGAd3MePXmbBw3Upezuq2aMNiGy493a/KdsdD4DwDgOj3WXnd3zZGXb98P4Lmi49ADXzD+e/ZNMkPPriY8eHG6YXrgW8wMd52Tjv87Lw1pLgkmowROEoLEosn5jaelYvZlGYY6JvqAHhbceXaaZstkdEbAn8ZhBtfdB0V3AUUkRZeZkgi1TYomr2M1MwzrbcXtZ6Xpfn2zMNuE12/OxhHDbLTWT4Ry2RgO7GfFm7flYHBPi+hwWtWjiwmPXJah6ZJfRY029zADSB++Y1tf0UHsSXd3UGoA9JcfVgagqNpk0A4rw2FD7LhhUqroy96rI4fZ8Px10d0LVrPOMxWSFEwyQ6ZbQsnlGTj/SP0WCHZJlzH/qiykOrW75YcjHN/9mrxdFffEmP7qAHSXAFADoL/8sDKoaetep43h+JEOFJ+orwYeJpnh9jPTcNvkdKQ46PAezqPLQw1eFU0+FR4/h6LhWTYqBzz+6Gs3elUEaJoXLruEC49yY+7UTN3NTKW5JDx9dRYyXNrGFQhzfFHuF335uqHH0211VaIxurg2JcwDA0THoRert4ZR06RqusbotDFMGu+AP6TiyU89ot8CpLkkzJuaie45pqRs4xsMRw+rMUkM3oCK1RVh/LoxjE07IthaE0FFjYJmv4qP7+6iWWV6s0/FYTdVIc0loTDLhO45JgzobsaQnhbkZ8lQVUCSYOjdJR3htDEM723BG7dkY/rjdVi9NSw6JLjsEp6anoXsVG0TZ5UDS9eFUNtEpyzuosft7bq6ow6fVnk0wD8VHYeeHNjPiv9dmK75U4U3oOL1732Y836TsGvfP9+MkisykOaUkubkPl+QI6JEB/0lfwRRuiaE1RVhrKuM7POkuq/v66rZ9G6zX8UhN1Tt9b9np8roX2jG6L5WjOpnRU6qBEUF3HYGKUkKNpv9Ku57vRGfLhH3BOy2S3jmmiwUZMkwa7zLp9mv4ox7q1FVTzUAu+GRiNx1+WNdd4gOZBddzQBwxscymk38m59/D+KHlUEcOsSm6bq30ybhtPHR3uD/e6NR86OEjxxmw62T0xL+KTIYjp5Lr3KgbG0QXy8N4Jc/gqhrbt+Tk6Th28RY9P/29pmoblRQ3aj8uf5rkqNb58YNsOKwoXbkpEaD1dtUeSy57RJuPj0VffLMmPNBk+bfnxTHX4O/1smzJ8DxvzeaaPD/JybJyhjo6JRbXSUAepwi0YM7X25A77xsdM/RNpN32iQcN9IBp03CHS/UQ6N6RFx0tAvnHuFO2AN8/EEOReVYty2CDxf5sOiPYKeqpXcNyFpRVcBuYW3ephpROJZvCGH5hhAe/agZDivDqL5WHFNkx+h+VnAAKfbEq+1w2SRMOtiJPnkmXP9UPYJhbb5AKQ4Jz16bhfxMMYP/E58045PFPk1f1yik6BinmwRAN1+5SZO4vC6nsh4MbtGx6JHVzFByRSYGdDPDrvFauC/IsWJjCNfMr4trwZfEgNvOTMMRQ+PXnlSUQCg6tb9hewRv/+DD18sD8Phjsz7qsDJ8fFcXuDWqFWn0qjjjvmrsaOj8E54kAUN6WnDcKAcOHWyDLMW/AZbWgmGObXUKLn2kFjVx3trbJV3Gk9OzkJOq7bIZ50CTX8WdLzXg2+VU+b9XHD+Vzc3XzYOubu6yI4orhqkcZaLj0DNZAm4+PQ1HDrfBpXHnu1CYo7JOwSWza9o9Pd0WVjPDzCkZGNTTEpeDSUTYtZa/pVrBWz968fXSAJp8sX/vctJkvHpTtmY1AA1eFZfMqsH6qkhMf67EgGG9LDjtYCdG97NCYixhEkGVA3XNCqbMrsWmHbF933bplWvCo8XRan8tZ1NCYY4djQouL6lFZR1N+7cimOIJpS14tqcusiTdLAGoNP3fKkUF/u+VBixb78C1p6TAZdPui24xMxRmy3jlpmxcXlIb05u/yy7hyasy0S0nMfb3ewIqIgrw/kIfXvnWG5Mn5X1x2pima8wMiEsbWZUDpWtDKF0bgtXMcNgQG847woUu6TJcdskwnSpbIjEg0y3j6WuyMG1uLX7bEtsdAsN7W/DgJRlI1Xj2xOPnWLo+iJuerqeuf21j9bgsRQB+FB0IoKMEgHGMpY9P23ywyIdl60O45/x0dMuRNZsNkCWGrBQZT1+dhbtebsDXyzqfxO7ao5yXoX2lcixxHq183t6g4OnPPPh6WQARRZtPtJaJIBAdzFz2+L5gMMzxyRI/PlniR8+uJpxzmAuH7Twe26jbQRkD0pwSHi3OxI1P1WPR6mBMfu6/D3TgmokpmhZVhiIc3gDHfa834MtyXTzMGoYabXaniwRAN0da5Y669iEAaaLjMIpGn4p3fvKhtknFsF4WyDI0OwnPamYY29+K7FQZP/8e7PDTZ1aKjOevy0bXdOMO/mGFwxfk+GppAHe93IAnPvFg3baIZgWTQHTq94hhds1mTxQV+Om3YMyXAPamwaPi2xUBvPatF94gR98CM1TODXmAFRD9/kwYZEdlrYJ12zr+HkoScOOkVJx7hEvTwd/jV/F5WQBXPlaL1Vu1+QwkEsbg2/bLw6+KjgPQyQzAsGmb8wB0Fx2HEX2wyIdvVwRw02mpGDvAqtnToMsu4d8HOjCkpwVXPlbb7rqA3IzodGhWimzIqd1d6/ufLPFj/sfNqPeIa3jitGlb8GWW4z8D0BJ/iOPFrz14ZYEHRw234/ITokdAG3GrqMvOcOvkVLjsEt7+0dvuf++2S3jk8gz0zjNrVjPj8auoaVLxn+frsWqz+CZHRhXtdssZIH7Tuy5uvcOnbj0NjL0mOg6j651nxq1npKJnV5NmN0VFjT4Bf1EWwOdlfqzbFkZEAbqmy+jZ1YRvlgUQivz9c94lXcZz10YHf6Nt/dp94H/ik+a4FES210ljHbhpUqpmsyicA7Pfa8ILX4ntFMkYMGGQDddMTEWqgxmyr4DHzzHr3Ua889M/t82ZZYaiPhbUNasIKxwum4SeXU0Yf4ANI/pEi2W1SPz8QQ5vQMVDbzfhi3K/5j0NEpHCed9lcwv+EB2HLmYAQAcAxcTayjAueLgGo/paccvpqUh3y3HfSy9LDG47w0ljHThimO3PP1d59AY29V8qrn689s+pzuxUGc9eY7zBf9fA/+kSP+brZODfJcWu7QwAY0C6xn3lW8I5sGB5AN+uCODwoTZMPykVKQ6myTn3seKyM0w/OXoA1+5JQI8uJsy6NANpLgnqzo+ayqNbPrVa6glHosn9M1948OoC7z47UZL2kRkbB0B4AqCLGoDcUdfeDSBPdByJoqJWwevfeVHXrGJITwskBshxHiAYi65t7vo/m4XBYmJIcUSbCSkqsKUmgueuzUZOmrGm/T0BFd+uCOKqx+rwRXlAd9XOhwy2YWgvbY+j3bQ9gm9X6Kf4a31VBK9+60W9h+OAHhYwBsO0j7aYGIr6WNHgVfH7ljBOn+DEPeelIytF/vO7ZLMw2C3aPPEDgDcQPcjnykfrsPiPoKY1LcmAATXbfnn4fR3EIdaYq7fYg2G5EeBm0bEkIqeN4cp/p+DoIrvm1eK78wY4TDJg0rBYsbM8AY4d9Qpuf6E+5tu2Yun2M9Pw7zEOTV/zm+UBXPdEnehLb5HdwjDlWDdOHhftYmmQjxs8AY6qOgVdM+I/c7fPGOoV3P58vS4OM0pgv5fNye8vOgjhX40R07YcokL6RnQcia5HFxPuOS8dhdmmhGmuEi+hnVOfs99twgeLfLpf83zokgwcMtjW+R/UDqVrg5gyu1b0pe9Tl3QZM85Kw4BuZkPWB2hJUaPb+ma924T3f9b/Zz4BcBZiOaXz82pEBiH8W6GCUQMgDWzcHsHZD1RjzgdNaPar9AXfi2a/ivcW+vCvO7Yb5kbodmif0GndibIjttcruHxOLW59rgE1TYpmvfiNxhNQUb4uhFPv2YH3FhrjM58AGDerB4oOQvi3mEOiAkCNcA68/p0XZ9xbjZWbwvAE6Ju+SyDEsaU6gotm1uC+1xvbfNCNHojYBmekWaQfVgZw4owdeOcnX8zOX0gEisrR5FPx4JtNuPSRWtQ20XujJc7EP/wKTgA4A7jwLCjZVNUrOP/hasz9oAnNcehNbzTNfhVv/+jDpHuqO9WYRRQRZydofSBVZwXDHA+82Yip8+pQVa/E9VArI/AHOf6oiGDSPdX4YBGd3CeCHk6/FZoADCuu6s+ADNFvQjLaNRtw0awabKtTEErC6dFgmGNHg4LieXV46O1Gw25zslu1/xobtQvfrxtDmHj3Dnz4S/LOBnj8HK9868W5D1TH/XRCsk8jB85Yqe32nT0ITQAYuPAMKNmt2xbBqffswHe/BuDxG3MA7AiPX8UX5X5MvHsHVmwMiQ6nUywCunkYqYfDnoJhjntfa8R1T9aj3qMikiR73BSVo65ZxfTHazH3gyba2ieezVqbOlxkAGKXAFRO6/86EAhx3Ph0PR55P1ogmMg4B5p8Km59rh53vNCguz39HcEEbeaRhVcQdc7iP4KYdM8OLF8fTvjkNxjiWLctgkn/3YHydcZOeBOJ6GUAsTMA1AFQV976wYurH69DozcxdwkEwxwVtRGcfX81flgZm5PYRIs2htH+l6Wo8TkSWGv1HhVTHqnBs182J+ySgCfA8dWyAM55oAYNAs+sIP/EudhCQGHf4KIplVkc6CPy4sk/la8L4ZwHqlFZp/yjh7+ReQMci34P4vR7q1FRmzjrni47gyLgns454BZwIFC8ruWZzz245ok6NCRY8uvxq3jsoyb85/l6zY6nJu2SnAmAYubjoINGROSfKmoVnHHvDjR6E+NpwRuI9jO/en5dwlV/u2ySgOd/ACwxZgB2V7omhDP/V42N2yMJsTTkDXA88n4zXlnQ/tMGiWZyioo39xL14sK+wRJN/+uaL8hx7+uNhq4J4Bxo9Kq45ok6PPN5s+hw4kLUfnwGMUcCx9v2egVn3l+Nn38PwmvwPhlbaiJ46wca/PVOhSRsFkBYAsB1sAeS7Nt3KwLwG6ghzu4UNbrF7+z7q7Hkj8RY72+Jyy7mfAdZSrwZgF1CYY7rn6zDWz94Ddssq9nP8dhHiZn0JhrGxY2FQr7BvYvXWBlQJOqiSdtwDnz0iw+qwfYLhSMcFTUKzt5Zy5DIXDYm5HAlk8yEHVijBc6B2e81YebbjYYsDmTg+GV14ia+iYQJbIcvJAFwq/bhALQ9vYR0yE+/BdFsoKegYJhjbWX03IO6ZuPduNvLZWcwCzjU22wCnElwwM67C3244al6wy2FBSOgsw8MggMDxly9RUhDPCHfYEkHPZBJ22zaYZzWuL4gx7L1IVw4s8bw67dt5bJJQhIAWWJIcyZ+AgAAi1YHMW1eHZoM1DabKv4NhYVDENISX8g3mIMKAI2irllFRY3+T1LzBjh+WhXA1Hm1CbV9sTWpTgmSoAPvkyUBAKIthC+ZXYt6j/63CXr8Kh5+u1F0GKQdRJ2KK+obPEbQ65J24hy4aGYNyteFdH1CnlkGBve0oF+BWXQomkp3iRuEkykBAKKHLilqtMBUr5r9Kq5/qh5flgdEh0LagTMxp+Jq/g3eueexq4iLJR0TinAUP1qL71YEdJsEWMwMOWkyHivOxJX/ToGUJGNTmsAEwO1I3CLA3UkSMOVYNx65PANZKdLO7ov60+RTceWjdVT8Z0AMfLSIg4E0v3uI3PNIOk5Vgduer4c3oO91UKdNwqTxTrx4fTa6pgtYHNeY2yEuAUgR+Npayc+U8epNOTjncBfcOi569AWjxx0v30B9/g3Kbt6RMUTrF9X8E81UWv83qn+NdhjiHHiHlWH/fDNeuyUH/xrtEB1OXIlsx5uofQB2OWq4HS9cn439uprgsOr7c++wMkw7MQUWs77jJHsnMe1Px9X+GyxorYN0TqpTwtUnp8Cl46eg3TEW3SN/7SmpKLk8M2GfVl0CB2G9D4od5bQxzJySgdsmpyHVKabRUkekOSRcfrxbdBikg0ScDKjp3WN0cW0KwAdofZGk82aclWbIG77bzjCqrwVv3ZaD4b01X2KLO5G/EyPMBrXXoB7Rz8qYAVZhbZY7ymphOHmsA71yTaJDIR3AGT9I69fUNAEIK8GxABJ/YTbBjB1gxfA+Ft0WP7XGJDNkuCXMnJKBWyenwWzQ62iJTeAgLCfQN1mWgKtOSsGcqZnITpUN+xlx2yX878IMCNoZSjqn6+BpVT21fEFNEwAu0fq/0VjNDHeclSZ0qjlWXHYJxxbZ8erN2eiWnRhPSSKnpyWjzI23olu2CW/cmoNJ450J0d44J03C6Qc7RYdBOsAEVdNlAE3v6oxxSgAM5sKjXHBajT/472K3MnTPMeGFG7Jx7uEu0eF0CmNiEwCVc1gNXnT27zEOPH99FrplmxJmScNpkzDlODdSk6xPQyLgGp+Sq9knZNIkLkPFKC0vjnROhlvC6ROcsBtw7X9fdhUIXnyMG48VZxr2Rmm3MKgCd2WqqrjjiDvLbZcw+7IMXDsxFW5BJyrGk8PKMP2kFNFhkHZi0HYngGZ3vvU524aAgUpUDeSm01ITbvDfndPGMKyXBe/8JwfjBxrvbCq3XYLIpnScQ9d74/dmVF8r3rk9B6P7Ga/Qr61MMsNhQ+xUEGg0HAcUTVmXqtXLafbtVQXscSQd17fAjFF9rTAleDWRSWZIdUq4+7w03H1uutCiuvZy2RkguDGjkQZQkxx9Kr7/onSkuyTDFvq1ldPGMOPsdNFhkPaRuMWu2cFAmiUAjA4AMpQ7z0kz5NNdR7ntEg4bYsPrt+QY5qnJaRM7dS1JMExfiJ5dTXjz1mycepAzaT7XjAGF2TLGH2C82a1kxjXsB6DlN4ESAIOYMMiG3CRoo7snm4UhP1PGU1dn4ZzDXLpfF3bZmdDtXrLEdF81zxgw+RAnnrkmCwVZpoRe0mqJ2y7hxkmptC3QQLSsA9AkARhy2ZZ8AN20uijScYwB1040Tse/eHDbo1XUz1+XjexU/SZCTpsEk0ncnd1s0nc74HSXhMeKM3HZce6ELPRrqxSHhKNH2EWHQdpu9CEzuCbTkJp8e2WTpHmHI9IxRwy1I8WgVfGx5LAy9Cs047Wbs3HoEH1OobpsDCaB+YlZZtE6BB06sL8Vr9+Sg6G9LEmdzALRWoCr/p0CObnfBiNxNtVt0+RgIE0+EpzT9L8RSCzaDS1Z1khbI7HoGQh3np2OBy/J0F0r5BSHJLRIk7HoU7aeWMwMN5yaivsuSEeGW+z7oydOm4QTD6TmQEbBuDZ1AJp8e5nGzQ1Ixxwzwk6DfwucNoZx/a1489Yc9C80iw7nT2ku8dPaaU79LJH0yjXhzVuycdJYB32O9+CwMlxxgjvhdz4kCs61aZoX92/J4OuqnADT/Jxj0j4SA4pPTNHtlK5oFjNDl3QZjxVn4tLj3LooqkrXwVJNqlP8G8EYcP6RLjx1dRbys0yG704YLzYLw8njEvt47ASiybJ53O8g5lBkFMD189hEWnToUBvsCdTyN15cdglnHerCqzdnIz9L7NOvHmo13IKPWc5wS3hyehYuOtpNT/2tcFgZLj7aTbUAxpBfdFVl3Avn4/5R4CpN/xvB5celwE1P/23itDHs19WMF6/PxrEjxT1R6WHAExnDoUNsePPWHAzqYdZdfYZe2SwMhw+lHQFGoKrx3w4Y/wQAEiUAOjekpwWZKeJu5M1+FU0+gU3tO4CxaBHeTael4KFLMoR0xNPDco2I67ZZGP7vvHTMOCsdqU4Jsh7WY9rBE1DR7BfzeXfaorUARP+YBg2B4nzX5wzgmrU1JB0z9V9upAiayg2EOF76xouLZ9WgrlkFF9zatr1cNgkHDbTindu7YHhvi6avrYc9+Fo/effOM+ONW3Jw2BCbLhKg9uAcqPeouGRWLdZWRoR91tNdEkbubxX9dpBWaLETIK53kCFTqwYwICPeF0E6rlu2CfsXiCvRaPareO4LD9Zti+DM/1Wjsk5BRDFWFmCSGTLdEh6ekoHrTk3VrNJaD9PeWhXcMQacd6QLT07PRF6mbLhCv4jKUVWv4Kz7q/FHRRgzXmyAJyBmFsBllzDtXzQLoHccGDS6uDauRzrGNQGQJW22MpCOu+hol7AnSY9fxf+90ohQJDrgVzcqOPv+amzcHkEwbKwkAIiuh580xoFXbspGYXZ8G3nZLAxmgV0Ad9Fi9r1LuowXr8/GxQYt9AuGOdZVRjD5vmpsr1cAAFtrIvj4F7+wz3m3HJNhzrxIYnIIgVHxfIG4fpu4Rs0MSMfYLQwTBtuEbWnbtEPBDysDf/uzJp+Kcx+swbL1IfiDxksC7BaGHl1MeOG6LEwcF7/GKwO7mXWxFRFAXKvKjxpux6s3ZaNvgTEL/XxBjrK1IZz/cM0/1v3nfNCEQEjMZ9xtl3D2YS7Rbw9pRbyXAeKaADDQDICeHTvSLqxTWrNfxb2vNbT434JhjqnzavHVMj+8AeMlAYxFt8dNP8mNeVMzkRqH7Xr5WSZdJACKiricl+CwMtx/UTpunZyKFIf4hkcd4Q2o+KLcjysfrUWohSd9X5Dj2S88QhJdxqK7KIx0/HUyivfJgHFLAIqmVGYB6B3P4EnnnHu4S8jpaJwDv24M47ct4b3+HVUF7nihAa8s8MBjwCQAiBbpFfWx4K3bcjC6X2yLrvRy8zabGIbsF9vix0E9LHj7Pzk4+AAbXDoodOwIT0DFS994cddLDVD38fF99VsvfIJmAWSJ4Vg6JEjXGMeBkybxuDUcid+3y4KDAIi/Q5EW9Ss0x+XJtC08ARUPvNnYpr/76EfNmPl2IzyCtk11lklmSHdJuP/CDNx8eiosMVi3T3FIGN5L2x0He+OwMpx2cGyWOiQJmPavFMy5IgPZqbIuahw6wuNX8fDbTXj84+ZW/24owlHyXqOQJNdhZTj3cFoG0DUG95rsikHx+vFxGwG06mVMOuacw1xCCqo4Bxb/EcKmHZE2/5t3F/pwy7P1aDZYr4DduewMJ4xy4M1bczpdfHX1xBRYdfD0v0uvXBMGdOvcTpK8DBmv3JiDMyY4DX16X7NfxS3P1uO9hb42/5uPfvHDJ2hHQJpLQj8dnW9B/kliLG7LAPFLAOgAIN2ymBnGDbQKWVf1BFTMeb+p3f/ux1VBXDG3Fg0e4/UK2MVmYcjPkvHU1Vk4+zBXh97/I4bZcNhgm64OdXHbJfzvoowOL0mcMMqBl27MRq9ck5AlqVjgHGjwqLhiTi1+XBVs179VOTDvw2Yh9S5uu4TJE+iUQD1jLH51AHFJAHoXr7EyoCh+bwnpjPEHWIUUkO1a+2/P0//uVm0O47yHalDdqEBRDZoFIHrTnXKsG09Nz2pXB8ajhtvxn8npunxCznRLePzKTNjbkQS47BJmXZqB6ycZt9APABSVo7pRwXkP1WDV5nCHfsbHi30ICNgSyBhw8CAbnQ+gYxzxe5iOy6/dxRxFAGxxe0dIp0w6yClk778noOKR99r/9L+7rTXRhkFbqpU/+wcYkdPGcEAPM968NQcnjXVC2sevw22XcNc56bj1jFTddr+zmhn2zzfjjVtzMLB76/UJYwdY8fZ/cnBgfytcAtoJx0oowrGlOtrgZ2tNxxJbILqb4slPm+ETtCPgwP50u9ax7oOLtxbE4wfH5ZtXNK3iOg48EN/3hHSE08bw0V1dhKz/r9gYwvkP1cTkZ9ktDCVXZKJfobldT5165A2oCIaBz8v8+GV1EDsaFMgyQ9d0GYcPtWFMfyusZhaTAkItNPtVbNwewRvfe7F8Qzh6PVK0oc+wXhZMnuBCdppkyKY+uwuEOFZXhDFtbm1MBm6LieHT/+sipDj3h5VBXPVYreavS9qI89PL5ha8HusfG5dWUPGcsiCdc/hQMXv/m/0q5n/SelV0W/lDHJc+UoN7zkvH2AE2IYfSxIrTJsFpA04/2IkTRtsRDkcr4s0mZsjmN267hEE9LOidZ0YwzGGSAI7oU67dwgzXxrcl3gDHot8DuPnZhpi1rg5FON5b6MOZhzph0rjGY+h+0UTaL2hLItk3DjYOQMwTgHilmmPi+3aQjpo03imk0CoQ4lj4W/uKo1qjqMDNz9bjrR+9ht0muDvGoocLpbslpDolQw7+u7NbGNKcElz26NN+mlNKmMH//Z99uOHp+pifW/HiNx4hg7AkRbuCEn2KVyFgzBOA4Vds6Q2ga9zfEdJuKQ4J3bLj1lNirwIhjhe+9salep9zYPa7TZj3YbOww1VI8vAEVDz+cRMefKsxLp/n2iYV5WtDmu90cVgZJo6l3QA6NmTgFTti3rQh5gkAlxlN/+vUuIFWSAKm/yMKx7s/eeP6Gq9958UdLzQIO2edJD6PX8X/vdyAl76J72f5qc89Qj7HfQtMsCTADE2CMlmlUMwPBop5AsBUWv/XqxNGOYRMKy9eE9Jkj/OC5QFMnVtn6F4BRJ+afCqumV+HL8oDnf9hrfh1ozbflz1xMIzso48Ok+SfWBzOBYh9DUAcmxaQjpMlYGB37Tt+NflUvPyNR7PXW7kplBC9Aog+cA7Ue1Rc+kgtSteGNHvdN7/3an5UsNvOcNxIh6avSdqOs9jPrsc0ARg6fUMawAZo9o6QNhvWyyrkqTgcAcrXaXfjBKK9As5+oBoVtQrCBu4VQMSKqBxV9QrOvr8af1R0rMFPR72z0Cekz8WY/mI6hJI24Bgb64OBYpoAsIhtTKx/JomNo4rsmu+7jigc7/wUn+K/1tQ2qTtv3BFhZ64T4wqGOdZvizadqqpXNH/9Rq+K1Vs73lioM/oV0NkAOpWyvsvWmD5gx3REkOgAIN06+ADtM3tfkOOjX/zCrtkb4LhoZg0WrQ4K6bBGjMkX5ChfF11KahJ4ANWbP3g1rwVw2xkOoe2AuqUitgcDxTQB4IwSAD3KcIvZf+3xc2yuFvMUs0tY4bj2iTq88X1i9Aog8eUJcHy11I/iebUICejNv7vvfw2Aazx9JkkM4w+gBECvYl0IGLME4JAZ3AQg5tsUSOcN722FrPH2v4jC8eGith+JGk+cA4+814QnP/UIqa4mxuDxq3jzey9mvNgAPdSPBkIcyzdoW3sAAPlZtB1Qr5heZwCa6rYNARDzRgWk8w4+wKp5q1xfkOPjJeKm/1vywtce3PNqA80EkH/w+FXMfKcJJR04qjqe3vrRq3mDK1XlGNSDtgPqEQd6DrlsS36sfl7MEgCu0vS/Xo3c36r5awZCHFsET/+35LNSP658rA6NXkoCSFSzT8VtzzXg3YX6mLHaXazbZ7eF2y5h3ADt7xmkbSQzi1mr/ZglAIwOANKldJekee9/zoFvV8S/YUpHLVsfwsWzalDTpOhiqpeIwXm0T8WVj9Xh+5X6/LwGwxwbtmmbSDMGqgPQMcalmI21sSwCpAZAOjRkP4vm1f9NfhVfatAxrTPWV0Vw7oM1qKpXYn6gC9E/ReWoblJwzgM1WL5B2z4V7fXRYr/mTYFy0iSYNT6RkLQNj+FYG5MEYOeaRKGwd4Ts1bBeFjit2u7/lxmwdL2+b6oAsL1ewVn/q8a6bRHNb7BEnFCEY0t19He/tUZ/y1R7+u7XgOafT0UB9i+Iy2nxpJMYMKxoSmVMWjbGZGSQTdJBYt8SsjdFvbXf/7+mMmKYp+omn4rzH65B2doQ9QpIAoEQx+9bwjjngWrUNRujDmR7vaJ5AuCwMgzsToWA+sTNqpWNjMVPikkCwDmt/+tVocbH/yoKx3e/6nv6f0+hMEfxo7X46BcfbRNMYL4gx8+/B3HJ7FrDJXtL1mg7o2Y2MYzqS4WAesXAY7IMEJMEgNEBQLqUnylD0fghxxPgWLxa+8rlzuIcuO/1Rjz1WTNtE0xAHj/HZ6V+XPdknWFmp3a3YHlA8+R0QDdqCaxXnMdmzO10AjD4uiongCGi3xDyT/27WWA2aTv/L0vAao0PToml57704L+vNsLjN94gQVrmDXA892Uz/u+VBsMeE126JghV4y0rTisTcnw4aR0DH4sZvNPjd6d/gDkUGQWAqkV0aMh+Fs2/wJurFagGf4D+rMyPG5+pQ7PAPvAkNjx+FXe/XI+nP9fuSOp4qPeoCGhdCKgCffJoFkCn0oZUV/Xv7A/pdAKgxmgqgsRe/0Jtv7ycA4v/MN70f0t+/i2Ii2fXoq5ZNexTY7Jr9qu4Zn4dvtD5ltS2+nWTtjNrDquEnrn0bKdXMut8HUCnEwBGBYC6pXUBoCegYuk6/W//a6u1lWGc92A1djRQrwAj4Ryoa1YxZXYtStcmzufxl9+DCEW0+xyaTcCAQtoJoFc8Bs33OpkAcMbBRot+I8g/yRJg0/hAD86BVZuNu/7fkso6BWfcV40N2yOa3nxJx0RUjqp6Bec8UI0/DFyL0pJfN4Xg13j3Qj+NZxFJ28ViJ0CnEoARV24fyIAM0W8E+aeCLBMiApawa5oU0Zcec00+Fec/VIOtNQotB+hYKMKxsSqCM/9Xjar6xPscrqmIQNZ2Ug/5mRq/IGmP3iOv2NG1Mz+gUwmAqqo0/a9T3XNMMGnbABAVNYl3090lEOKYOrcW1QmY4CQCzoHKWgUXPFyDpgQt3gwrXPPdKbIM2C20E0CvFBbp1MFAnRoiYrEGQeJjv1wTnDZtMwAjb/9rix0NCqbOqUUz9QnQHU9AxbR5xmvw017rND4YSFGBbjlUCKhXnT0XoFO/2Vh1IyKx17OLSdMWwOEIx6pNiVNwtTfrqyJ45ycfzpjghEXjHgvtwTnQ6FU7PRXeJV1GqlOCpN9LRVjheOdHH7bVJf7szIoNIYztr117b7PMkJshY/XWxE7ujYp1cidAhxOAwZdV5QBKb9FvAGlZXqa2WbsvyLG+Sv8Hq8TC8196cPJYh64TgEafijPvr8b2TiYA2akyXr05G2lOjdeT2sEf5HjlW6/oMDSxemsY3oAKl12b34fNAnRNpzoA/WJFY67eYl84s9DfkX/d4U+R2UTr/3qWk6btDZsxYNOO5EgA6j0qqnT8tOnxq7jhqbpOD/4AUN2o4Pon63TdHtkf5NjRoN/fRyxt3B5BRMNLlSWG7rQEoGPcHArKRR391x0eJTjnlADoWKpD4yOAJYZ6j34HiVj7daM+p0S9ARVPfupBaQwPjylbG8LTn3t0e1BSsiSeAFBVr8Ck8QN5ISUAuqZ2YhmgM6MErf/rlElmYBqfARwI86TaIlelwyfOYJhj0eogXvg69m1vn/vSg9K1QYQ0bkfbFnpNTOIhFOHQuidVLi0B6BrrxFjcoQSgd/EaKxiGi75w0rKsFAkRjQ8OqW7U34AYT06dHZLCObCtTsGtzzXE7TVueaYe1U36a42cquP6hHioa9J2pi3dlVzvr+EwjAV4h25IHfrNupijCIBN9HWTlqUJ+MJW1ibPNCwA9MnXV4e0Rp+KK+bWxvUJ3b+zF4LetkF275JcU9QVGn/XTLK+kl3yD5lF07b17cg/7NBIIdEBQLrmtmu/bauqTl+DQjxJEjCwu34SAI9fxQ1PxqborzVbqiO444UGXR2XbJaRVIVqVfXaftdUzmHRuK04aR+1g1vyO/aoSAcA6ZrbziBrmAFwDuxIoiWAQ4fYIGlcY7E33oCKJz71aHrozXe/BvDWj174dLL27rIxXHyMW3QYmtlWF9F0GUZVtS8qJu3T0TqAjv5WDxR9wWTv3HYJZg0fiEIRjvrm5JgBsJgZrpuYCpddfAIQDHP8/HsQL8ah6K81c95vwuqKsC5OSZQkhoMPsGJAN/3MysRTTaOq6cFUHECKQ/znnexDBx/K250ADL1ySx8AnTqAgMRXilOCWcN1u3CEo8Gb+AkAY8Dd56QhRQdPQ7uK/m57vkHI66scuGZ+nW62frrsEmZdlokuSVCxXudRNE0AGKCLzzzZB4b9hxVvy27vP2v3b1VWGE3/61yGW9K0DbCiQneFYbFmMTHce346xvS3waaDw1G0KPprTZNPRfGjdbr53We4JLx4fTYG90zsM+wbvRyKhm+5SWZJt9PCgBi42u6Dgdr9W+WM1v/1TutsnSM6HZ2oxg6w4q3bcjD+ABucNvGDv5ZFf61ZUxHGA282waODegDGosnvI5dn4MGLM3RVqBlL/qAa/dJpRJagi6SX7FtH6gDavVLMwMaJ/6qTfdG8Rz1PvAQgM0XCMUV2nHuEC1YTg1snU6D+EMcLX3s1LfprzUe/+DBugBVHDrfr4tAgt13CIYNtGNXXisraCF76xosfVwVQlyB1Kv4Qj87La0SSoOmSIumYjpwM2K4EYOj0DWk8gv6iL5Tsm1nrZVAGBEPGTgAkCRjU3YLDhtpw6BA7XDYGs4nBobOGPxY52vtebziHLgb/XRgDnDaGPvlm3HxaKsJKCpp8HF+W+/HVsgBWbQpB415ZMeMLci3HfzAGTYuKSccwYMQh52+wLXi2Z6Ct/6Zdv1YWsY0BVH08CpG90rpxB0O0FbDRZLgljB1gwzFFdhzQwwyVAyl2besn2kuWGcb0t+Klb7Sv/N+Xob30u+5utTBYweCyA2cf7sK/xzggScDyDWF8vNiHn38PokEnxYxtEQhxSBrehWVGMwAGYW1IsQwH8FNb/0G7EgCJ87EdazhItKR5ts5giKcpiQF9C8wYNzA66GenyZAlwG6w9c1+hfpa23bamC5qI9pCYn+1Dh43wIqi3hYEwhxeP8e3vwbw1VI/lq/X9+yAqmq6AgBJYjDp+Ohr8pedTfrikwB0ZI2BaE/z1p06m/7dXapTwsj9rThsiA2j+1nBWLRxjJaNkmJNlqKzF3pZ0zZy1b3NwmCzMKQ5gckTnDhhlB2MAas2h/HxYj++WxFAk08f7/MuInITKyUAxtDOfgBtTgAOmcFNTTWVI0VfH2mdLGCRRi/T5hKLPiEfMtiGI4bZkeGWIEv6W8vv7DUO6mHBtyvavNQXVyP6WOGyGX9lkLG/dtCM7mvFAd0tuO6UFFQ3qviizI9vVwSweqv4Y6BVzjU/7VPrI4hJBzEcFD0YiLUpT2xzAtBUt20IAJfo6yOtCws4l4dpOin5dw4rw4g+Vhwzwo7Rfa1gkvGf8vfFaZMwoo9VNwnA2P5W3SSAsRRd1mBw2yVccqwbkw9xQmLA0vUhfLDIj0W/B8X0QBAwBaBl4yHSCRxZQ6/c2nvpI1jTlr/e5gSAcdD2P4PQekseh7ZPCIwB++ebMWGQDUcNtyMrNfGe8lu7/hH762PaXZKA/KzELxGXdpsdOGigDcN6WcE5x7Y6BZ/vnB1Yt02bzFuSmKY5AOeUABiJxNk4IMYJAOecGgAZhOZ78nn8G4XYLQwj99/5lN/PCmnnNq9EfcpvTV6mDEmKFoSJ1CfPvPM8gOT6PeyaHeiTL6FnVxPOOtQFWQbK1obw8WI/Fv4WgDdOzZGsZkBVtXvPVc6FzCqSjuFg4wA825a/257UnRIAgwgI2JMfjyrw/CwZhw2x45giO/IyZTAWbfJCgIgC7NfVjLWVYtekh/eyJM3My96YZIY0V/Q9mDDIhqLe0SWRHQ0KPlnix0+rAvhtS+x+T1Yz0/w0QD0c+kTahvG2F+u3KQEYctmWfACFoi+MtI3We/IZA+yWzg/MNgvDkJ4WHDvSjvEDbQADnNZoQx7ydw4rw+Ce4hOAcQNt9PvZw66TInt2NWHKsS6cdZgTigL8sjqIb5YH8NOqAHydaOZkM2u7BKByICy+6zRpu35FUyqzSufn1bT2F9uUAEiyNF70FZG282s8AyDL6PBTYM+upj/X8vMzZYAhISrK481iYhjT34a3f/QJjUNvPQn0xiQzpO48SveYEXaMG2gFQyo27lDw6RI/vv81gK017Ztft2rct4JzIEI1AEbCuFk9EMCHrf3FtiUADGPp128cdc0KONdua57FxJDmatugbTUzDN0v2nJ3wiAbrGYGu5VRp7EOOEDwYTfZqbKQLadGtmsJ64DuEvoVmHDJsS4oCrBodRCfl/rx8+pgqyc8ptglTSsuwgrXzYmPpG12HtoXmwSAGgAZS4NHRSjCYTVrc5uwmBhy0va+DSA/S8aYflYcN8qB3rlmKCqn88VjwG6NblETdXMe2suifdOpBLL77MCxI+w4+AAbOOfYWhOtHfhqqR/b6v45957mkjQtflVUoNFHj4BGwqKFgK1qNQEYfF2VEwFlsOgLIm3X6NU2AQCA3Iy/EgCLmWHYfhZMGGTDoUNsf3Zb++uUQho0YoFzYEB3Mxb9HhTy+gf2syZ9AWAs7dpZ0K9QQq88Ey462gVFBX7+fefswO9BhCIcqU4JFo13XjbrrBsiadXIgTNWWlbOGLjPY0Nb/RiZApHRAEv8jb4JpMHLNd8e1jvXhNMnOHHUcDt65ZqgqtF904nYIEYv3HYJw3tbhCUAI/rooxdBIjLLDObdZgfGH2ADAKytCKM5oGpaeMkA3bVDJq2y26pThgFYtK+/1OrAzkANgIym0atq3iysV64Z008y7/aUT+KNMeDAvlY8+mGz5q9ttzCkuag/rFZcO7fZDu1lQSjCNU2sZQlo9tMoYDRqdBlgnwlAqwuxnDHa/28wTT5V88N57FZGg78APbua8dIN2Ri5v1WT17OYGc6Y4MT7M7qAlv/FEPE9oz4AxsNY67V7rcwAcAZeOVr0hZD2afarkJK0Q16ycdoY+hWa8cDF6ahpUvHIe034/tdAzBvF2C0Mp09w4pzDXbCaojs3SHIIUQ8AQ+JtKATcZwIw4srtA1UV6aIvhLQP54huJTLIGe2k89x2CW67hLvOToM3yPHYR834eLEPSieXbh1WhknjnTj3cBesFga7xnvQiXg1jZQBGBEDuhQVb+5VWtJt3d7+zj4TAJVHxlHFtjFVNyrIcNNWu2TjdkhwO4DrT03Blf9OwbNfevDGd952H+aS5pJw3hEuTBzrgNnENN1RQvSlpa2IxBhUSOMAdCwBYFway0WcPUk6raI2gr4F1KUtWTltEpw24NJj3Tj/CBee/8qDN773tnpORIZbwsVHu3HcKDtsZmrDTIDNO+gkIKNiKsYCeH5v/32fCQAHnQBoVBuqIsAQ0VEQ0Zw2BqeN4bLj3LjoaBfe+sGHZ7/w/KN5UF6GjEuOdePQITbYLYwa/BAA0eK/zdWUABhWK4WAe00ABl9WlQMovUXHTzpm8w4FwbC2zYCIftksDDYwTD7EiVMOcuDtH6OJQFaKhKn/SsHw3ha47JLmu0eIvgVCHHXN1APAuNjAMVdvyVg4s7Cuxf+6t382fGrlyWD8bdHhk7azWRiK+lhx1DAbxg20wWGltVvSslAkesa7yjlcNmrYRFoWCnOEIhwVtdHDixYsD9CMgMFwSMeVz8n9pKX/tvclAEbT/0bBGPC/CzMwuq8FHH8dOELI3lhMbGc7WRr5yd5ZzAwWM0PfAgn75ZpwwVEu/Px7EDc/Uy86NNJGDHwcgBYTgH2NFHQAkEGcdagLB/azwrVzKxghhMSaWWZIcUgY29+KgwfZRIdD2mhfh/m1OFr0Ll5jBTBcdOCkdeMGWHHJMa6dB4kQQkh8uewS7jw7jXYZGQQDH100ZUmLv6wWE4A07hgBQJveoqTDDh1iwz3np8NFT/2EEA2lOCQ8VpyJUX1pmDAAu2rJa3FPWIsjh0rT/7pmNTNcMzEFM85Koyl/QogQKQ4JD1yUjlvPSEPPrnRgrJ5JexnTW/ytMYaxse4lTjrOZZcwdD8LxvS34sB+VmSlypAlUFtWQohQLruEE0bbcfhQGyQJ+GNrBN/+GkD52iDWVEQQpkOEdGFnHcDsPf+8xQRA5TiQhhYxslJk9Mk3YWB3C4b3tqB3nnlntTZV9xNC9Ce6oyQ6YhT1sWDIfmZ4Ay7IMuDxcfy2NYzSNdGEYEtNBDsalJgfVkVaw1ucAfjHOD/0yi19JFX6Q3S4ichuYchMkZGZIiHDLSE7VUbPLib0yjMhP9MEt11CROGQJNDebANRVU6nL2qs2a8iHIlugTXJ9H3RO0Xh8AY5OAdMMoMvqKKyVsHWWgVVdRFU1SuobVJR71HR5FPhD3H4gxzNfpWShRhRTVLPpbNyN+7+Z/+YAZB460cIkr90yzahIFtGdoqMgmwZ3bJN6JohI9UhwWaJZsayBDDGoHIOVQU4olmz1QTI/2i5SncxPfIGOMIKh1lmaPapWF8VwabqCMCBOo+C3HQTBnY3IzdDhsPGYKKEIKbCCkcgxLGhKoIVG8NY/EcQ66vCMEkMhdkm7J9vxuCeZuyXa0aaU0JY4TDJgNNKiYEeyDJDiuOvX4TTJiM7VcaQ/aL/O6JwBMJAJMLBWPQeyXb+OwZAUTnqPSqqGxVU1CjYtCOC9VURLFsfQpOPOhW2haTwcQA27v5n/1wC4IwaAO1FikPC6H5WDOphxgHdLdgv1wRVBSQW7cLX+sEpdCfSO1+QIxzhkGXAH9w14ISwemsYaysj2FoT2ecRu/mZMi49LgUTBllpd0aMePwq3lvox3NfNaO26Z9v/qYdEfywMvDn/5YYkJdpQu88E/rkmzG4hwX7dTXB7diVGDA4rYwSAx0xyQwuGdj7PTLag6B7jgkj+kSPPPcGVHBEv7NL14WwaHUQ360IoN5DCUFLdtYBvLT7n/3j3S6aVvErBwaKDlZPenQx4dqJqRjU0wxZYnBY6c5hdIEQRyDMYZKAUATYuD2ClZtCWLU5jHXbwti8Q+lUAdP4gTbcdW4aUhyUBHQU50C9R8U18+uwYmOo0z9PkoDCLBN65ZrQt8CMQT0s6NnVBIeNQVEAkymaGBBjCoQ4IgrH0vUhPPRWE7Us/qdlZXPyh+7+B3/7tA+dviFNilhqse8OgUlDYsAlx7ox+RAnrTEaVDDM4Q9FB/qwAmypjmDVpjBWbg5h3bYINmyPIBSOzyLj8N4WzJySQTMBHdTkU3HBwzXYuD2+N3KTzNAtW8Z+uWb0LzTjgO5m9Ohqgs0sQVE5zCZK+o2Ec8ATUPHkpx68+LVHdDh6orJQIKN0fq/GXX/wtyUAU9g0VmU0+AOALO3sr9/PSl9+AwhFokVDEgNUDlTUKli1OYyVm0JYty2M9dsi8Ie0rSYqWxvC4594cPnxbvoMtVOzX8W9rzXGffAHouvP66uia8pflvv//HOzzNC9iwn7dTVhQDczBna3oEcXEywmIKICNjODjbbi6g5j0R1TU451ozBbxr2vNXb+hyYGCVb7aACf7/qDvyUAKpPHRssvyC1npOHAflbY6catKxGFwxeMfkYZAyprFazeGsbyDdEn+vVVEXj8+lkDfP07Ly440kUJQDs1elV8Xubv/A/qhLDCsbYyjLWV4b/FYjEx9Oy6MzHobsHAbmZ0yzHBLEcTA7uFTuHUA6eN4dgRDmyrU/DsFzQTAABqdDtgywkAOMZSnRowbqAVRwy10+AvkKJyeAIcDNGlmO0NClZvjWDFhugT/dptETR69TPQ701E4Xh5gQeXH+duYccHaYkvyDH/k2bRYexVKMKxemsYq7eG8cmSvxIDm4VFt/XmmjGguxkDu5mRn2WCSQZUNfrfKTHQltPGcP6RLny3IoD1VVQTwPboCPjnp/GQGdzUVFNZD8AlOkiRJAZ8dFcX5KTJokNJCqoa3R+sqtEtP7WNClZXhLFiYwhrKyNYWxlGXbP+B/p9GdTDgtmXZSDVSatrbdHgVXHW/6pRVa+IDiUmHFaGnl3N6J1rwsAeFvQvNCM/U/5zucpu/auRDok9zoEVG0O44OEa0aHogTclKy9twQwWAXabAWis2TaUJfngDwBjB9joyT8OOAe8QRURJbq2Wu9RsKYiusXuj4roGv32hsS44e/pj4owJBr728wkIWEGfyA6o7FyUwgrN4Xw3s++P//cZZewX9foroQDdiYGuRnRBw/Oo4lD61uLSWsYA3p2NaF7jgmbdiT9LICzuXrbYABlwG4JgASMo9V/4OSxDmq5G0MqB35cFcCKDeGdA30YlXXJ1wo02a63M5LlrfL4VSzfEMLyDSG889NfiUGKQ0KvXBNuOT0N++XSITuxYLcwHDzIhhe+oloAlfFx2JkA/DnSccapARCAIftZRIeQUDx+FSXvNeGpz5rx/a8BVNQm3+DvsLKku+bOYEBSb7lt8qn4fUsY2Wn0IBIrJpnhoAF0dDEAMODPsf7PTxjjSPoEQJIAMyXcMeWySzh9QnKvLA3uaYFMJSVtpqjA/vlm0WEIdcQwO2RqJx1TXTPoS7jT+F3/HwkAiq6q7MaBAtFRiWaW6Ukt1iQGHDnMBlMSV8AfXWSHy0ZPc23lsjMcMtgmOgyhJh/i1OXWUUXh8Ab+2oprJMl8D9pD/sgrKgqBnTUAqsrH0VsT3fdrlKnHXd2ugOgWI1mKPjnpcauRJAETBlvxVXmg8z/MYCQGjNyfph7bQ5YYThrjwPxPmpMyIS/MNiFPR0+rihod8NdWRvBVuR/b6hWYJIaRfS0o6m1FTpqMiMLhsjFdb3X1BZLww7QXEYZxAF41ATT9v4uqAsEw4NLhw4fKgWafClkCNlcr+GV1EGXropXFDTsPv+iSJmPcQCvOPdyFNJf0j2LGQIiDI1oQoyWXTcIlx7iTMgEYO8BGy0odYLMwjOhjxeI/gqJD0dw5h7vgsGk/kHoCHM0+FSk7D02y7BzMV24O4c6XGrCt7u87M75cGu2BYJIZ+haYMLqvFUcMsyM/UwYHg9uur2Rgw/aw6BB0g+2eAACUAOyydF0Qhw+1iw4DAKLnZ6sc2xtULFjuxw8rg1i5KbTX0+i2Nyh4+0cf3v7Rh/EH2HDb5DRIErBlRwSrNoexanMIpx7kFFLo2CVNxv75ZvxRkVxfwouOdtGukg5IcUi48ChX0iUANgvDUcNtQtb/65oUnHz3DsgS0C3HhN55ZlhMwMeL/fuciYkoHCs3hbFyUxhPf+6BzcIwvLcFhw+1Y8IgGyQGuB0SRJY0+IIc3yxPvgeQfRgHAKbB11U5EVAGi45GL97/2Y9Rfa3CbtrNfg6A49eNYby70IefVgU6tN72/a8BHH1r1T/+3BfkuDMvTfM1abddwsXHuHHDU3Wavq5I+Zkyenalx/+O6t/NjOxUGdWNidMToDUnjHLAJGCkDEU43t65FVFRgQ1VEWzoYOe8QIjjp1VB/LQqiLsB9C8045gRdhw13A6bhcFlY5A0vkZF5fj+1+RKJlsxeNwN1W6T2acO4xLoLrXTrgHXreEkgD/IoagcS9aE8PZPPixeHUQoEp/1qp9WBYVstGYMGN3Xggy3ZPjOfm111mEuairVCTYLwxkTnCh5v0l0KJpgDDj/SDGfmWCI47PS+Jy98NuWMH7bEsbMd5rQK9eEiWOdOHqEHbIETY7LDkc4Pi8N6OqMEB2Q/f7wUIkzPkR0JHqicuDulxvi/mFRFI5mv4o1FWHc/2Yjjv3Pdlz7RB1+XBmI2+APRDP9X1Z3/mz1jrBaGC48yi3ktbVmMTEcO8Iu5GkuUZjlaDGgnCQrKOMPsMElaN28qkHBDg06ca7bFsEDbzXiqFuqcN0TdfiizI9mv4pAHE/q9Pg5HkmSJLJ9+BATwAeBTgD6m4W/BfFZmR/HjXDEPBv3+KNP++//7MMb33tRUav99OabP3oxsq9F82UOs8xwwmg7Hv+4Gc0Jno0fVZTcWx9jxSQzHDLElhQFpFeemCJk6TEQ4njrB1/nf1A7qBwoXRtC6doQnDaGk8c6cfZhTljNLKazAs1+Fdc9VUdP/y3gwBATGPqJDkSP7nutEWlOCQf2s8HZyYrcUIQjGObYUBXBs1948MPKwF4L+bSw+I+gsO1VVhPDOYe7MO/DxM7ILzjSrct93EbjskdnjRI9ASjqbUFWqpipjojC8UW5uKOXvQGOF7/24KVvPBjV14qLjnKjb4EJJpnB1okdS81+Fbe/0ICl68TMeOoeZ4NNAMsWHYceqRy48el6XHCUC+ce7oLT1r4q1lA4OujXNKl4b6EPn5X5NZlia9O1qcBnpX6cMs6heTGOxcwwabwDz37RbMhmIm3Rt8CMDHeSzFtrIC9DTviDXKafnCqs8PjXTeE/txKLxDmw6PcgFv0ehNsu4fBhNpw23om8TBlWc9tPTPQFOGqaFNzwdD3WJNmuo/Zg4Lly11HX3k6nAO5d+boQvij3I9Mto2uGCcEwh8XE/tYwyONX4Q9xRNToh2/j9gheWeDFfW804pkvPFi+IQSvzppQbKlWcNwoh7CmQWYTwy+rE7Mq97pTUtG/0KLbplJhhcMTiO7zbvKpCCscgRCHSYbmCWFbmE0MNjPDd78m5ixAUR8rJo0X811s8ql46K0mIUuR+xKKcPy+JYy3fvThg0U+bKtXoCjYORvLEAhxyFL088p5dHdTIMSxo0HBnA+acM+rjahpEp/U6JzMhk+rCAKgE3DawGpmGNHHgn6FFuRmyLCYgMo6Bas2hfHrppDhqttfvSkbfQT1XG/2qzj5rh2o18GTRyy57RI+uDNHl3v/m/0q6j0q3v7Rh9I1QexoUNHsVxEMcxRkmXDSWAdOGeeAw8p0V7/Q7FdxzG3b41osJsobt+QIO/WvtlnFMbdWQTXQ22qzMBzQ3YJuOTLSnDKCYY7KughWbQon7JHi8ULb/9ohGOb4cVUQP65KjCfX57704ObT0zpd49ARdgvDtBNTcPfLDaLfhpj69xhHm6cqtaKoHA1ejrteasAPK1t+it5aE8Gc95vwwlce/Pf8dAzuadFVDYNJiu6q2P3Y3ERw8CCbsFP/whGOt37wGmrwB6JFi0vWBLFkjehIjE8CQBUSSeqrpQEogr79Jpnh8KE25Gfqp+d5ZzEGnHWoU1dnMUQUji3VCk777469Dv67a/SqmDavFl8t9euqRsNuZTj/yMRaqZQk4PpTxK39B8Icb/+YWAkVaR8JQGI8zpJ2C0U4Pi/zC0sCXDYJt01OE/02xMyIPtZOVS3HQ4NXxYUza9pV5MU5cNfLDdi4PaKrw3hSHBIO6JE4q5WTxjuR6hK3VPTblnBSdVkk/xCRANSLjoKI89wXHmFPeowBA7pZMLpfYpyWd9HRLk06m7VVs1/F7c83oNHb/joLVQVueqZOV/0a3HYJFyTILECKQ8Klx7nhFLTM0uRT8diHzaLfBiKWRwKwXnQURJzKOgXLN4SEPem57Ay3T07TXdFZe2WnyuhfKKagsiWcA6u3hrGoEzstKmoU3Ptao26SAMaAEX0sSBf41Bwr105MEVpjUdOkYtkGWv1NctUSON8gOgoi1mMfie3Ml+KUcM5hTtFvQ6dMPsSpq+l/T0DFf19t7PTP+aLcj5pGfSQAQHRL4MljHaLD6JT9882YMNgGs6Ck1+PneOzjxG7ERVrHGFZJHPhDdCBErFWbw6iqF7cW6LAynHeEC/lZxiwIlKVo9b9eZjEiCseCZYGYNM7hHLjzpfifjdFWVjPD6ROcQo+W7QyJAf+9IF3oNtFgmOObZYnZU4G0ncrxmwRgoehAiHjzPhQ7C+CyS/jveRmi34YOOXSIHSYd5S6+IMes92L3hLdiYwgrN4d1UxBoNTEc2N+YdSPnHuFClzRxH5ZAiOO5rzxQ9ZHPEZE4WyVJ4aolAGgvSJL7YWVAaLdCxoAeXWWcNMZ407sXHeWCy6aPdelAiOOlb7wxb+1672uN8Ab0MWq4HZIhT5XMy5Bx/pEuoWv/wXB07z8hkhT5SSqdPyIMzhaJDoaIxTkw+90mePzikgCXTcKVJ6UgR+ATUnv17GpC1wz9xOsNcjz/lSfmP3dLdQRfLg0grOhjGqB3ngld0/XzvrdGYsD9F2UITRQDIY4XvvIkZDdF0k4cq0tLuq2TAIAz/o7oeIh4X5T70eQT+5Tntkt48OIM3fbR39O5h7vg0knbX2+AY+Y7jQiF43ODn/1uE/w6aQ7ksDKceahxCkfPO9KFbjkmoZ/rQJjjlW/p6Z8AYOxjINoICBbZ9DoA6giR5DgHHn5H7LYviUWfqs89XP/7vR1WhkOH2HRTkFbTpODTJfE71rXJp+LFrz3w6+AJUpYY/jVaf22XW9Ir14Tzj3QLabm9iz/E8dwX9PRPojhXPwJ2JgCLZnfZzoGvRQdFxFuwPCD8aFCHleGCo1zoJeiAlLY6bpQDJp2M/h6/irtfboh7od4LX3t10yJYlhgOG2ITHcY+WUwMMy/NhEvg4A8AwRDHa9/R0z8BALauPDv/G2BnAgAAjLNHRYdFxOMceOjtJuHNX9x2CbMvy4RdR3vr93Te4S7YdXBgDufRtq7l6+Lf2CUUji4zeHRwvLXTFk0U9ezWM1KR6Ra7ROQPcjzzhQfBOC0NEWNh4I9hBlOB3RKAsrm57zJgpejgiHjf/xoQ2hdgl6wUCf+9IF10GC0a0tMCl1384A9Em/7c+1rnm/601adL/KhtEv/5AICcNFm3M0XHjrDjkME24Q2iPAEVr9HaP4kKqkx6btf/2C01ZZwDD4mOjujDHS80CJ8FMJsYinpbMPkQ/RV7XXCUS2gzl10iCsfXS2PT9KetOAdmvKiP5kBuu4Tzj9DfLEC3bBNuPC1VeIGoJ8Dxv9cbdbN7g4jFOR4vL8mt3vW///bpZKFtLwL8V9FBEvFWbw1jyR8hYScF7uK0SbjsODcGdtfPKXDpLgnDell0sVPBF+R45H3t27ou3xDC71vFNwdiDBg/yCZ0b/2eHFaGudMyddEboqImgm+WU9c/AgBokMLs7t3/4G+f0NL5I8JMlS4HQOkiwf/eaNTFti+XXcKsSzPQRSf7vk8b74TFLH7ACYQ4XvzaI6xo87+vNsIbFD8LYJYZTjxQHw2kJAbMnJKBLLckPEFs8kULQwkBAAbcUzo/r2b3P/tHilo6L+8HgL8kOlgiXnWjgjd+8Oli61C6S8JjxZnC11MlCTh1vFMX28+8QY4Xvha3trtpRwTfLBPfHMhmYTj7MH0sA1w/KRUDuluEJ4iKyrH4jxB+2xIW/ZYQffi9kflK9vzDFueoWEi6GkCl6IiJeE9+2qyLbV+MAV3TZOFNgsYNsMGsg5ozj5/j4bfj1/SnrWa/26SLBNFpYxjWS+wy0cljHThupF0XyxHeAMf9b2hXGEr0jIUlpp63tqTPP84GbzEBKJ2fVyNxnA9A/PweESoQ4rjnVX0UfFnMDEP2s+Cm01KFxXChTor/apsUfFYav6Y/bVXvUfHyN17hSUCKQ8IFAs8HGNvfiuknpehi3d8bUDH/42bU6GSnBhGLgd+ypKTwl5b+214/rUvm5n8B4GHRwRPxFiwPYOXmsPCCQCBaYHXsCDsuPkb7m31+loyeXcU//nv8Ku56Jf5Nf9rq2S898OlgFmBwTzMyBOy5H9DNjHvOTxde8b9LTZOK176nbX8EAPB5aVbeXsfxfX5ie23PuwnAZ6KvgIh3+/MNulgKAKI7A845zImTx2pb+HX2oeIb/3AOrNoSxlINmv60VSjMMeudRqEHSQGAzcxw2nhtt4wWZJlQckUmUhz6GPyb/SpufqaejvslAMdGFmJn7Wr605J9fmrfeIMpVrN6JsDXi74WIlZNk4L5nzTr5khYl13C9JNScMhgbVrBWswMx4ywC2/96wmouPdV/a3tfrLYj3qP2Clns4nh1PFOSBqNxV3SZTw1PROpOhn8g2GOT5f4sXorFf4R+BnYKXtW/e+p1U/uwpmFdZxhIgCaU0pyry7wYkeDqpupZ5ddwp1np2P8AfFPAo4ebodJFjv472r6s7lau6Y/baVy4P9eEXuQFBDdEnjQgPh/HrJTZTx7TRYyU2Th2/12afapmP2u9j0hiO5wABeUzs0ra+0vtil1LS8pWMbBzgP1B0hqKgeue7JON7MAAOCyM/zfuWk4OM5JwIVHuYRXd/uCHLPf0+8NfsmaINZURIQmiC47w4VHx3dLYIZbwjPXZCErVUeDv1/FLc/W6+KkRiIWB7+vbE7+a235u22euyqfk/cWOB4UfXFErI3bI3jqMw+8OjgMZheXXcJd56Zh3ABrXH5+v0Iz0lyCD3TZ2fSn0auf5Ksl/32tQXiC2KOLCQVZ8SnWzEqR8fx12eiSLuvmGOhAiOOTJX6UrtVPXQgRgwNf9N6e/5+2/v123dXKsvNuAvgnoi+SiPXC1x5sqNLHroBd3HYJ/70gA0cOt8f8Z59/hPitf96Aihe+0v8q3IaqCL77NSi0OZDDynDWYbEvBszPlPHiDVnISZN0M/gDQF2ziplv63dmiGiDARvMnE9+4w3W5mKc9t3VZjA1rChnAVgr+mKJOJwD1z9VD5+OZgEAwGVjuO2MVJx6UOxu/m67hAP7W4VO9XoDHA+/3YRQRF/v9948/Haj0L4AssRwTJE9pt34enQx4dlrs5GVIkPW0ejf7Fdxw1N1hvlskLjxMEk+8Ze5BbXt+UftfqxZ8Wj3eqjsRACUciaxHQ0K7n+zSRfnwu/OZZdQfKI7ZufEnzTWIbztb3Wjgs/LxDf9aat6j4rXvhPbQtokMxwdo9mgAd3MePrqLGTooL//7nxBjlcWeKndL+EM/MIlj3Rt90F+HZrXLJuX9xs4Ox9UFJjUPl7sw8+/BRAU3I52Ty67hAuPdGPG2Wmd2hLGGHDWoU5YBfZ19/hV3PWyfpr+tNUznzcLLUhzWFlMksBDh9gwb1omUp362Oq3i6JyrK+K4IlPmkWHQgTjDHeXzil4oyP/tsOf6rK5ee+A83tFXzwR6z8vNGBHg6K7AcphYzhimB1PTc/qcPX+qL5WoYM/58DKzWEsW2+84q5AiKPk/SahzYHSXRL6F5o7/O/PO8KFGWenCa//aEmTj+Oa+bXQURkOEYHjg/LMvDs7+s879ckuy87/D4APRb8HRJxQmOOqx+p0cVbAnuwWhn6FZrx4Qza6pLX/KOELj3QJ7fDmCai49zX9Nf1pqw9+9qHBK645kNsu4bwj2j8LYJIZ7jwnDRcd7dZFb/89efwqrnuyDrVN+vvOEQ1xrGbhwDn76vTXms59umcw1e6wnAlglej3goizaUcE974uvhVsSywmhm7ZJrx8UzaKerf9tLguaTL6duLpsbMiCsdX5QFs0WHTn7ZSOfDfVxvR5BMzUDEGjOlvbdcTfIZbwgvXZ+HwoXY4bTpa8N/JG+B48RuvrlpBEwE4mrkkTSyd36tTTwidTm9/vD+7WZIxEWDGfVQhnfZZqR9fLfULPxWuJYwBaU4JD0/JwDltPDf+jAlO2C3iBgBfkOOR941fZ7todRAbqsQ1BzKbGE5q45kRA7tb8NrNOeiVaxL6u9+bsMKxemsYT35K6/5JToWEs8pLcjv94B2T+a0ls/NXc/BzQccHJ7V7X2vEph0RRATuAd8Xl13CJce6MOvSjH0+3ZlkhhPHOIS1/vWHOF74Sv9Nf9rqnlfFNQeymhnOPMTZavX+GROcmDc1AxluSVfb/HbhHKhpVDH98Vrd1dsQbTHwGWUl+R/E4mfFbIGrfE7++wDuFvauEOHCCsflc2pR79HvwOW0SRjT34p3bu+Cgd1bnuI/dIgNpvaXDMSMN6Dixa/13/SnrdZti+DHVUFhiaHdwjCiT8tdIlMcEuZNzcTlx7t1c5xvS5p8Ki4tqdFVB06iPcbwXumc/P+L1c+L6Se+bE7enYyzN7V/W4heNHpVXD6nVti6b1uYZIZMt4RHp2XikmPc/+jqdtFRLmHFX0Zr+tNWD73dKGxboNsh4aIWzgcY2suCN27NwfDeFl0P/t6AiuufqkNFjdjTFolwv5tgOxdgMfsixfhTz3iAmy5gwEqt3xmiHxuqIrjtuXpd7gzYndMm4ZzDnXjpxuw/e8fv19WELuniHv93NBir6U9b1TapePN7n7CeEf0KzchOjf5eLSaG609JxexLM5GVIsEsuNHTvngCKkreb0bpGir6S3L1qqSeuKgkM6aFQTG/01UvfiCUM/KaLyXGzgGgzWHtRHe2VCtQFGBQT4vwTnr7YjExZLhlnDDajrACHD7EhoE9LEI6vjX7Vdz8TD2q6hPzSW/FxhBOG++ETUCBnSxFdyV4/CqenJ6FYb0scOiwyn93vmD0kJ/HP6aivySnMsZPKy8p/DnWPzhu34Ci4sqjOOcfIw5JBjGOm05LxfGjHMKP0m0Lb4DDYoKQJ0LOoxXzU+e2q5W34Uwc68T0k91wClhi8Yc4IgrXZWOfPQVCHL/8EcS18+uo2U+SY2A3l87Juy8ePztu34TSkrzPAX5H/N4WYgT/e6MRP64KwBfU/13MaWPCpoON3vSnrd792YtGr7hiQCMM/uEIxx8VYVz/ZD0N/uSd0jm5/4vXD4/rt6FsTv5/wfB6PF+D6BvnwC3P1mPFhpDuzgzQi3CE4/OyALbWGLfpT1upKnDXyw26rw8RRVE5KmoVTJ1bq9vttEQjDMsjNvmcWBb97SnO6TDjQcV8EcBWxPd1iJ6pKnD1/Dps2hFBOMGq22PBH+KYkwBNf9pq8R9BbNgurjmQXu3a63/RrBpDzJiR+OFAHYMycfmDXeO6Hzju82Er5+V4VBM7EQw18X4tol/BMMcls2uxrV6hJ5vd+IMcz3/p0fW2yXi459VGYc2B9IhzoKZJwQUza9Cg4z4aRBMqIJ1dWtJtXbxfSJMFsaWzcjdyYDKAxJ/jJHvl8as494EabK2hJGAXb1DFS98kTtOftlpTEcbPvwcRoUVucA7UeVRcNLMG2xN0BwhpOwbcWD4n9xMtXkuzipjykvwvwXCLVq9H9KnZr+L8hygJAKIJ0YNvJV7Tn7Z68K0mBJJ8qnvX4H/BQ9WoqKXBP9lx4OXSOfkPavV6mpbElpXkP8CAV7R8TaI/zX4VFzxcg4ra5E4CdjSq+LI88Zr+tFV1o4K3fxTXHEg0zoG6ZhXnPUiDPwEALJNC7BItX1DzPTEWs3oRgFKtX5foS5Pvr5mAZCwMbParuPvlhqQvhHvi02ZhLYJFUneu+Z//UDW21dHgn+w4UCcrpoml8/N8Wr6u5gnAwpmFfs7ZKQCqtX5toi9NPhXnPFCN1RURBJNoEOAcWLExjOUbqL2rL8jx2EfNSVUQGFE4ttcrOO/BGlTS4E+AiCTxUxc/2mW91i8spCtG+dy8TUxlEwEWFvH6RD98QY5LZtWgdF0oaZ4EPQEV97+R+E1/2uqtH71o9iXH7z4U4dhSreCs+6uxvYEGfwIwsOtKHyn4RsRrC2uLVTov7wdw3CDq9Yl+hCIcVz1Wi2+WBeBJ8CfBXU1/tlTThphdVBW4/61GNCd4c6BAiGPlpjDOfqAajd7EvlbSVvzF0jl5s0W9uvAG7cOnVjwFhgtFx0H0YfpJKZg4ziGkV7wWAiGOsMJRtjaEj3/x46ffjNEmOR4y3BLGH2DDcSPt6FdghiQxQ5wZ0RHeIMcvq4O46en6pC58JX9TzkLsIK3X/Xcn/Nt2yPkbbI0u67cMfJToWIg+TBrvxNR/uQ3Rt70zvEEOcGBrTQQf/eLHN8v8Cb0mzBjQr8CMQ4fYcOQwO9JcEkxy4g76u3gDHG/94MUj7zclfdEnieLAdpOKkYvn5W8RGYcuvnlF0zfm8oh5CYA80bEQfSjqY8EDF2UgxSEJOZpXa6EI3zk7AKzcGMIPKwNYuj6EDVURQx8I47AyjOprxTEj7BjV1wpwwG1nkKQk+KUiutvjvtcb8emS5N3uSfbEwpyxI8tLcr8VHonoAHYZemXFWEnFNwAsomMh+pCfJePx4ixkpUowy7r5qGoiFOHwBzlkmWHT9gh+/j2A0jUhbNgewQ6dFo+lOiX0KzBjQHczinpb0SffBKuZgTHAlaBLOnvDOdDgUXHlY7VYtZlqnclfGDC1dE7+PNFx7IxFP4qmVVzBgbmi4yD64bQxzL4sE30LzAk/VbwvnEefJjkHTDJDvUfBxu0RrNwUxrptYWzcHkFlrRL3nRROG0Nuhgl5GTJyM2Xs19WM3nkm9OxigsQADsBlS54n/JYEwxxV9QouK6nVbbJGxGBgz5fOyTtPdBx/xaMzw6dVzAegaTckom+SBFz57xScPMYJl113H1mhOI9upYwoHBKLrrMrPNpjocGjoqZJRVWdgtomBc0BDnW39QRfgCOyWzF6ioPBYZWQ5pTgdjCkOiS4HRKcNobsFBkuhwTOORQFMMmA3cogJ/FA3xKPn+OnVQHc8VIDQkna4ZDs1c9NzHfI2pI+QdGB7KK7b2/RlCVmbsn9CsB40bEQfRnb34q7z0tHapLUBcSDyvG3zoucA2EFMEnRQd1soje2o5r9Kma904R3Fwor6ib6VRVhfOTykoKtogPZnS6/7SOv2NFVkcJLAOSLjoXoS06ajJLLM1CQZYLNosuPL0kyoQhHfbOKqx6vw5oKWu8ne2JhMBxeVpL3vehI/hGZ6AD2Znjx1gPB2QIAVtGxEH2RJeC6U1Nx3Ag7XAm+VZDomyfAsWx9dH9/svZzIK1hl5bNyZsvOooWIxMdwL4UTd16HmfsWdFxEH06sL8Vd5+TDreDJd0uASIW59HjnOd+2Iw3vveKDofoFAN7rHRO3uWi49h7fDo3rLhyHuNct28gEctll3DL6akYO8Ca8I2DiD74ghyVtRFc+0Q9ttZQS2eyVwubmO9QPRX97UkWHUBr8odO/hyy62CA9RAdC9GfUITjq6UBbKtTMKKPFWYTIFGFIIkTT4DjmS+a8Z/nG9Doo37+ZG/YNg7liFVz9msQHck+oxQdQFuMvmp7l7ASWQygUHQsRL+yUmTce0E69s8303ZBElPeAMf2BgU3PV2HddvoqZ/sU5BxdULp3MJFogNpjWHukiOKK4apHD8AcIiOhejbhEE23Do5DSl2RtvaSKeoHPAFVDz1mQcvfuOBSg/9pBWMs0tK5+Y9KTqONsUqOoD2GD6t8myAvyA6DqJ/NgvDVf9OwXEjHTQbQDqk2a/ij4ow/vN8A7bXU0c/0joGlJTOyb9SdBztiNdYhk2tmM0YDPMGE7H6F5ox67JMZKVQgSBpO1+QY9Y7jXjrR2rqQ9qGAz+GshoOWzljYEh0LG1luLtianbeteDsG9FxEGNYVxWBSfelrkRvLCaga4ZJdBjEOLYoEXmikQZ/wIAJwIIZLGKCOgng60XHQvTvlIMcsFIdAGknk8xw0hgHJMPdIYkAAVWVTln+WNcdogNpL0N+vH+ZW1DLGSYCoPk5slcmmeHCo9ywJ/EpgqTjrGaGw4fYRYdB9O+KpfNyF4sOoiMMmQAAQHlJwTIGRqcGkr2aMMgKC3UIJB3ktDGce4RLdBhE19jMsjn5z4iOoqMMmwAAQOmcvJcBPCg6DqJPv28Ng4P6s5OO8Yc4Piv1iw6D6NfXKVm5N4gOojMMnQAAQFlW3o0A/0R0HER/KmoU1DTRxm3SMRGF4/XvqM8/adEmzqQzFsxghu4KZfgEADOYGlaUswCsFR0K0Z9fftdtG26ic+u3RRCK0AwS+Qc/JHZKeUlutehAOsv4CQCAFY92r4fKTgTQJDoWoi8btkegKHQTJ+23vsrQD3ckTjjHhWWP5JWKjiMWEiIBAICyeXm/gbPzAVr0JX8Jhjlo/CcdEQzTB4f8w/3lc/NfFR1ErCRMAgAAZXPz3uHg94mOg+hHTqoMcxx2AkQUDl+QIxCiQUIkReHwx+l30D2HGgGRv/my1/a8W0QHEUsJlQAAQHlW/m0A+0h0HEQ8SQImjXcgHqcD+0Mc5z1YjdnvNWF9VQRNPhURmmrQBOdAk0/FjgYFz37pQfnaEFQ19u/9wO5mOG20jZQA4NjIQmzyG2+whDoUIvFS3BlMNRfXnhnmgZ8B9BcdDhHn8CF22Cyxz3GDYY43f/BhfVUE66sieP07L/IyZJw4xoF/H+iA1czgsjHI1IMgZjgHmvwqVBX4styPd37yYfXWMAAgN0PGqzdlx/zQJ6uZ4axDXZj/SbPoyydieRhTTyydX1gjOpBYS9g71IirKvqqClsE8FTRsRAx3rk9B92yY5/jNnhUnHDH9r1OPffKNeGwIXYcN9KONJcEs8yoG2EHRJToEkswAnyz1I9PSv1Yvj6Elh72bz8rDcePtMMU46Sr0aviuNu301JP8uLg/IyyuQWviw4kHhL6rjR0asW/JYa3kYBLHWTfivpY8dDF6XA7Yvur9wU4Zr3bhLd+bNv+8KwUGRMGW/GvUQ707GqCwoEUuxSXZYlE4PFH+zZU1av4ZIkPXy8NYHN169X4mSkS3rotBw5LbGdeAiGO+Z8047kvPaLfGiIEu6dsTt5toqOI29WJDiDehk+rmAHgDtFxEG29fGM2+haYY/KzQmGOYITj2+UBLFgRwLcrAlA70F/IYmI4oIcZ4wbYcPAgG3JSZXDO4UrihMATUME50Ozn+Pn3IL5fEUD5uhCa/e1/g/sWmDF2gBUnj3UgxSHBbY9N8tfgVXE8zQIko897bc87LtHW/XeXBLcdzoqmbnudM36q6EiINkb3teJ/F6XHZADw+FV8Xu7HzLeb4AvGdgCwWxiG7GfBmP5WFPWxojDbBEXhsJgZ7JbE+2qGItGdE2aZobpRQfm6EL7/NTrgN/li17GRMeDo4XbceFoq3DFIrgIhjhe+9uCxj6gWIImsUU2hUUtn9WwQHUg8Jd5dpgXjbqh2B3yhhRwYKDoWEl+MAW/emoMeXTq/9u8JcJS814Q3f9CmHSxjQLdsEwZ0M2Pk/lYM7mlBdpr052yDw8pivsYdD4oaHehVNXoiY4NHxa+bQli0OohVm8NYvy0MRYMOzd1zTHj6miykOTufCDb5VJx89w40eKi1dBLwKFw6cNnc3JWiA4k3/d9NYmTI1K37y4wtApAmOhYSPxMG23DX2WlwdfLpPxThWPhbENfMrxN9SchwS+jZ1YyeXU0Y3MOMXnlm5KTKsJoZIioHeHSgtVsASYr/V5rz6DbIUISDIfraispR3ahg3bYIVm0KY11VGBurIqiqVxCHHXptNnJ/Kx64uPOzQWGF44Of/bjn1QZxF0O0wDnjp5WXFLwpOhAtJE0CAADDp1UeDfCPAMiiYyGxJ0nA+3d0QW5G53+9jV4V/5qxHd6Avtd9M9wSuqbL6JIuIzdDRpc0GZkpMtJdEtKcEtx2Bqc9uhNBUfmf/y9jDCrnUBTAbIreBlQe/e8RJXqGoqoCviCHx6+iya+i0auirpljS3UYVfXRffhV9QpqmpQO1URo5ZWbsrF/fufrQZr9Ks76XzUqahN2SZgAd5bNyZ8hOgitJFUCAADDirfexji7W3QcJPbOPNSJy49PgaOTW+68QY65HzThtW8T+yS4lJ07JFT+V/V9IhrRx4oHY7AjhHOgbG0QUx6pFX1JJD7eL8vKOxkzWOJ+GfaQdNvjykvy7wFDQu7pTGapTgmXHOPu9OAPAIEgx5vfJ/bgD0TXtZt8akIP/gCwZE0Q2xs6/9TOWHSnwbiBVtGXRGKNYzULBc5NpsEfSMIEAGA8qJgvAtgK0ZGQ2LlmYkpMmu0EQhzPfunRpEiNaGfmO00d2lq4J5ddwn8mp8FiSrrJ08TF0cwlaWLp/F6NokPRWhImAMDKeTke1cROBEPCtXZMRvvnmzFhkC0mh/6EFY532tjkhxjHotVBePyxqedw2yVceJRL9CWR2FABfmZ5Se4q0YGIkJQJAAAsnZW7kQOTAVBFj4FJEnDfhbHZ88858N2KQNxOlyPicA4887knJr0cbBaGMw5x0mmBCYAzfkfZ3IIPRcchStImAABQXpL/JYCEOt4x2VxwpAvZqbHZ1NHsV/HKAnr6T1Qf/uKL2YmNLpuEBy7OgAa7Lkn8vFtekn+P6CBESuoEAADK5uTfD+BV0XGQ9ivMNuGcw10xKfwDonvbf9sSFn1ZJE6CYY4PF/ljkgQwBuSmyzjncFoKMKjfzcx2HsCSerov6RMAALCa1QsBlIqOg7QdY8B9F6TDZYvNR1hROD5Y5Bd9WSTOXl7ggT9GLZ0dNoYLjnKhMA4nTpK4qoeq/mtRSWaT6EBEowQAwMKZhX7O2SkAqkXHQtrmvMOjN95YHaLjDXJ88LNP9GWRONtWp6CyLnZlPy6bhIenZECmO6lRqBJXzy6bV7hWdCB6QB/bncrn5m0C+BkAWj97lAjVK9eE849ywWmL3QJsvUfF1hr61SeDl76JTTEgEJ2JysuQcdVJKaIvi7QB57hlydzCj0XHoReUAOymbE7B1wC/QXQcZO+sZobZl2XG7KhXINr3/52f6Ok/WXy1NAAlhgcU2CwM/z7QgaI+FtGXRvaJv10+N+9+0VHoCSUAeyibUzATHE+LjoO07JYzUpHhju3HNhjm+GQxrf8ni0CI4+ffgzH9mS67hHsvyPizvTLRGYblEZvp3FoaGTMAAA44SURBVGQv+tsTfVpbkOINTQXji0XHQf7uwP5WHDLIBqs5tnuvNu+IHmhDksd7C31o9sW23WOKg+G2yWmiL43sgQN1DMrE5Q92pT2+e6AEoAULnu0Z4Fw9CWDbRMdCoqxmhhlndf6Y3z35ghyvLPCIvjyiscV/hGJ+FJpZZhjd14LRfemsAB1RmMrOKi3ptk50IHpECcBelM/pVqlK/FQAIdGxEKD4xJSYrvvvoqgc3ywPiL48orGIwqNJQIy57BLuPCcNlhjPUpGO4ZzfUDYv71PRcegVJQD7sPSR/J/AcY3oOJJd7zwz/jXaAZsl9jfVxX+EEKDWv0npvYU+NMfofIDdpTgkTPuXW/TlJT0OvFw+t+Bh0XHoGSUArSibmz+XMzwpOo5kds956XDZYz/4N/lUvPUDLQsmq19WB2PWR2J3VjPDiQc6kJ8VmxbVpP0YsFQKsUtEx6F3lAC0gRTcdgUYfhAdRzIa0ceKnLT4fEwlBpStpRWeZBWKcKzfFp/Wz04rwxXHU28AQWrDkCeWzs+jvb2toASgDUrnjwjLinkSgArRsSSbq05KidvWqvVVEYQiNP2fzD5d4kcwHPvPgCQxjBtoRU4azQJoLMIkPmn5nK4bRAdiBJQAtNHieTlVnPNJAGK7gZjs1YBuZhTGaRo1FOH4rJT2/ie7H1YGEIhDAgAAdivDpcdRLYCWGGPXlj5S8I3oOIyCEoB2KJ9bsJBxfqnoOJLF9JNS4I7T078/yPHDSsrlkl1FrYJQnBIAk8Rw+FAbUp10m9UE4y+UluQ9IjoMI6FPZjuVzi14joE9JjqORJfqlNC3wBy3nx8Ic+r9TwAAX5YHoMawNfDuzHI0CSBxV2410cNZe1EC0BGhyisB/q3oMBLZqL5WSFJ89lIrCseHi6g+iES9G6ftgED0nIBDB9tFX2JC48D2COMnLpxZSGt67UQJQAeUzh8RNsvm0xmwVXQsiWpgNzMc1vgkAN4gx4eL6F5BotZWhuGPYy+I/bqaRF9iAmNhMOn05SUFdC/uAEoAOmjR7C7bGcOJAGgkiYPsOFZPN3lVbK6m6X/yl/cW+hBW4lcMSOKDcfWq8pJcmo3tIEoAOmFJSX4554zWneIhTg9k4QjHuz/T9D/5u49+8SEQjM+HLhKnxCLZcbDnSucWPCo6DiOjBKCTyufmvcCAEtFxJJqK2gh4HO6bgTDHewspASB/V1GrYM22+MwK1TTF9tRBAgD4uZl56eGrkygBiAF3Vt414Iz2nsbQ8g1heAKxvXFGVI6vlgZQ10w3ZPJPs95pjPkRwZwDS9ZQt8kYq1Ii6qlrS/rQPt5OogQgBhbMYBET1EkMoO5TMVK2Nhjr01rhD3I8/nGz6EsjOrVyUxibdsR2FqDZr+KzUppxih0WBmOnLXuskLqyxgAlADHyy9yCWkXlEwHQtz0GfEGOX1aHEKvt2ZwDP/0WxI4GRfSlER0reb8Zzf7YzQI0elWs3BSf8waSEsPUspK870WHkSgoAYihpfMKljLQCVSxMvOdRnhjtAzgCaiY+0GT6EsiOrdkTRDrt8Wm/sTjV3Hv642iLylhcMYeLSvJe0J0HImEEoAYK52T9zLn7CHRcSSCyjoFz37ugTfQubuxN8Dx/JceVNTQ0z9p3c3P1qPR27nEMxDi+HpZAIt+p2XqmOD4KZRZP110GImGEoA46L0j90aAfyI6jkTw3Fce/LQqAF8Ht2j5ghwLfwvg6c89oi+FGMT2egVXPlaHxg4WBAZCHMvWh3DPq/T0HxtsG2fKpJUzBlI1ZYxRh4o4GXP1loxgWP4F4L1Ex2J0EgNumJSKY0fY4bK3PWf1+FV8Xh7Ava82xKyWgCSPXrkmPHJ5JtKcEmyWtt0qPX6OT0t9eODNJtr/HxsBiakTlpQU/iI6kERECUAcDb98y2DI0k8AnKJjSQRjB1hx2+Q0OKwM7n0kAh4/hzeo4q6XG/DzbzQFSzrOYma46Gg3ThvvgMTQYgKqqhyeAEdNo4r/e7UBy9bTg2qscODi8jn5T4mOI1FRAhBnw4srJ4LzN0HvdUxIEjC2vw2njHPggB4WWM0M4QiH2cQQinCs3BTGOz958d2KAD31k5ixmBnG9rfikME29C0ww2WToHKO6kYVi34P4utlfqyLUyOhZMU5Himfm3+V6DgSGQ1KGhg2reJeBtwkOo5EJEuA0yYhEOIIRWjEJyQhMPwQzGw4nNb944sSAC3M4NLwmm3vA/x40aEQQojObY5E5JHLH+u6Q3QgiY52AWhhBlPDSvgcAGtEh0IIIToWUFXpVBr8tUEJgEZWPNq9noGdCDDaG0QIIS27Yum83MWig0gWlABoqHRO3u8q5+cBoNNoCCFkN5yzh8rm5D8jOo5kQgmAxpbOzX+PM/yf6DgIIUQ3GL5Kzc6lQmmNURGgEJwNn1bxBsBOER0JIYQItokzaWR5SW616ECSDc0ACMG43WG9AMAq0ZEQQohAfkjsFBr8xaAEQJAf789uVjg/GUCD6FgIIUQAzjkuLHskr1R0IMmKEgCBls0t+ANgZwCgY+oIIUmFMdxfPjf/VdFxJDNKAAQrm5P3GQO/U3QchBCiFQ58sV9V3q2i40h2VASoC5wNL658FRyniY6EEELiimMjC7ORpfPzakSHkuxoBkAXGA8q5osA/qvoSAghJI48kiz/iwZ/faAEQCdWzsvxqCb5X2CgLwYhJBFxcH7Rkke60oOOTlACoCNLZ+VulFScCSoKJIQkGMbZPWVzC14XHQf5CyUAOrNkbv4XnIOKYwghieSz/XbkzhAdBPk7KgLUJc6GT6t8GcAZoiMhhJDOYMAfiik0eumsng2iYyF/RzMAusS41axeCIAaZBBCjIujOcKliTT46xMlADq1cGahn3N2CgBqkUkIMSLOJX7hsrm5K0UHQlpGCYCOlc/N28Q5nwwgIjoWQghppzvLSwreFB0E2TtKAHSufG7BV5zzG0XHQQgh7fB+WVbe3aKDIPtGCYABlM8teBjAM6LjIISQVnGsZqHAuZjBVNGhkH2jBMAgUjyhK8D4YtFxEELIXnE0c0maWDq/V6PoUEjrKAEwiAXP9gzICjsFwA7RsRBCSAtUgJ9ZXpK7SnQgpG0oATCQxfPyt0jARAAh0bEQQsjfMPafsrkFH4oOg7QdJQAGs2RO/o9guFZ0HIQQspt3y0py7xUdBGkfSgAMqKwkfw5neFJ0HIQQAuA3M7OdBzAuOhDSPpQAGFQzfNMAtkh0HISQpFYPVT1xUUlmk+hASPtRAmBQa0v6BJkpdDKACtGxEEKSksohnVU2r3Ct6EBIx1ACYGCls3ps45xPAhAUHQshJOncXD4n9xPRQZCOowTA4MrnFiwE45eJjoMQkkz422Vz8h4QHQXpHEoAEkBZScGz4Pxx0XEQQpLCsojNdC4V/RkfJQAJgoWrigF8JzoOQkji4kCdrJgmLn+wq1d0LKTzmOgASOyMvmp7l4gSWcKBAtGxEEISjgKVnVA2L+9T0YGQ2KAZgASyaHaX7eDs3wD8omMhhCQafj0N/omFEoAEUzo3r4xzdqnoOAghCYTjpbI5BTNFh0FiixKABFQ+N+8FAHNEx0EIMT4GLGVhNkV0HCT2KAFIUClZeVdzsAWi4yCEGFptGPLE0vl5PtGBkNijBCBBLZjBImaunsqADaJjIYQYUkSCeuryOV3pHpKgKAFIYL/MLahVVD4RAGXvhJD2Ybh6yZzCBaLDIPFDCUCCWzqvYCkYrd8RQtqB8RfKSvKpjijBUQKQBMpK8l5ijD0sOg5CiCGUWU2cdhIlAUoAksR+Vbk3gIH28BJC9ooD2yOM/3vhzELqJZIEKAFIEm+8wRSrST0LYOtEx0II0SMWBmenLS8p2Co6EqINSgCSyMKZhXVQlIkAqI83IeRvONQry+fm0XkiSYQSgCRT9mjhcjB2LgA6yYsQAgDgYM+Vzyl4THQcRFuUACShspK8txnD/aLjIITowsJm5qWivyRECUCSKs3Mu4WDfSw6DkKIUFVKRJ20tqRPUHQgRHuUACSrGUyNKOGzAawVHQohRAQWBmOnLXussEJ0JEQMSgCS2IpHu9czsH8BaBIdCyFEYwxTy0ryvhcdBhGHEoAkVzon73eVg4oCCUkmDHPLSvKeEB0GEYsSAIKlc/PfY5zdIzoOQogmvmPBbVeLDoKIx0QHQPSCs+HTKp8CcIHoSAgh8cJ/tZr5hIUzC+tER0LEoxkAshPjLLTtUtoZQEii4uuZKXIUDf5kF5oBIH9TNKXSoVr45wwYJzoWQkjMbGJMOby0pBu1Aid/ohkA8jel8/N8zcx3OIDXRMdCCIkBhuURxg+iwZ/siWYAyF5wNnxa5X0AbhAdCSGkYzjwhYXZTl1Ukklbfck/0AwA2QvGy+bk38g4uwSAR3Q0hJD2YGEGfntqVt5xNPiTvaEZANKqodO39ZAi6nMADhYdCyGkNXy9BHbukjn5P4qOhOgbzQCQVi2dlbux1/a8wwB+DQeogpgQffJysLtZSBpEgz9pC5oBIO0y8IodLqsUvg7R2gC76HgIIVAB9hbnuL58bt4m0cEQ46AEgHTIsGmb8xjkKQAuBpAvOh5CklAtOJ5mkvI4VfiTjqAEgHTKpElcXpNTeYIMdjZn/AgAaaJjIiSBeQF8xRl/K7U5/PqCZ3sGRAdEjIsSABIzh8zgJk9N5WgF7GgGdQQ46w+G7qDPGSEdxLZx8F8ZsIwx9oW7OfgdDfokVujGTOJq4BU7XBY51Atg2Uxlbi6pbsYlm+i4CNEbzngE4E0AawBnDTazsp7a9hJCCCGEEEIIIYQQQgghhBBCCCGEEEIIIYQQQgghhBBCCCGEJKX/B4Cl84qr8DdmAAAAAElFTkSuQmCC;" vertex="1" parent="1">
                    <mxGeometry x="291" y="392" width="68" height="68" as="geometry"/>
                </mxCell>
                <mxCell id="47" value="Azure Kubernetes" style="aspect=fixed;html=1;points=[];align=center;image;fontSize=12;image=img/lib/mscae/Kubernetes_Services.svg;labelBackgroundColor=none;strokeColor=#CCCCCC;fillColor=#CCE5FF;" vertex="1" parent="1">
                    <mxGeometry x="510" y="50" width="77.03" height="57" as="geometry"/>
                </mxCell>
            </root>
        </mxGraphModel>
    </diagram>
</mxfile>